<?xml version="1.0" encoding="UTF-8" standalone="no"?>
<!-- Created with Inkscape (http://www.inkscape.org/) -->

<svg
   xmlns:dc="http://purl.org/dc/elements/1.1/"
   xmlns:cc="http://creativecommons.org/ns#"
   xmlns:rdf="http://www.w3.org/1999/02/22-rdf-syntax-ns#"
   xmlns:svg="http://www.w3.org/2000/svg"
   xmlns="http://www.w3.org/2000/svg"
   xmlns:sodipodi="http://sodipodi.sourceforge.net/DTD/sodipodi-0.dtd"
   xmlns:inkscape="http://www.inkscape.org/namespaces/inkscape"
   width="153.91893mm"
   height="158.7793mm"
   viewBox="0 0 153.91893 158.7793"
   version="1.1"
   id="svg8"
   sodipodi:docname="africa-map-simple.svg"
   inkscape:version="0.92.5 (2060ec1f9f, 2020-04-08)">
  <defs
     id="defs2" />
  <sodipodi:namedview
     id="base"
     pagecolor="#ffffff"
     bordercolor="#666666"
     borderopacity="1.0"
     inkscape:pageopacity="0.0"
     inkscape:pageshadow="2"
     inkscape:zoom="0.87087522"
     inkscape:cx="339.88473"
     inkscape:cy="371.00869"
     inkscape:document-units="mm"
     inkscape:current-layer="layer1"
     showgrid="false"
     inkscape:window-width="1848"
     inkscape:window-height="1136"
     inkscape:window-x="72"
     inkscape:window-y="27"
     inkscape:window-maximized="1"
     fit-margin-top="0"
     fit-margin-left="0"
     fit-margin-right="0"
     fit-margin-bottom="0" />
  <metadata
     id="metadata5">
    <rdf:RDF>
      <cc:Work
         rdf:about="">
        <dc:format>image/svg+xml</dc:format>
        <dc:type
           rdf:resource="http://purl.org/dc/dcmitype/StillImage" />
        <dc:title></dc:title>
      </cc:Work>
    </rdf:RDF>
  </metadata>
  <g
     inkscape:label="Layer 1"
     inkscape:groupmode="layer"
     id="layer1"
     transform="translate(-34.979254,-25.812784)">
    <path
       style="fill:#000000;stroke-width:0.18939452"
       d=""
       id="path845"
       inkscape:connector-curvature="0" />
    <path
       style="fill:none;stroke:#000000;stroke-width:0.26458332px;stroke-linecap:butt;stroke-linejoin:miter;stroke-opacity:1"
       d="M 54.876079,29.173756 97.319399,99.905171 40.052924,50.871418 142.09638,51.730732 94.834148,76.650818 139.9481,76.006333 118.25044,34.329637 48.001572,94.481569 35.756358,62.042491 75.499599,92.762943 95.263805,76.650818 l 38.024615,48.551202 -37.38013,29.64631 42.75084,10.52659 -36.73565,5.58553 49.10782,-38.02461 -56.197152,0.42966 44.684292,-41.891527 9.66727,29.431477 -62.30021,-15.03798 64.01884,-35.87633 -1.28897,30.50562 21.05318,-13.963839 -11.81556,22.986629 -85.716503,-82.494077 16.54178,-1.074141 1.726181,4.990069 15.245252,8.329287 4.72623,-7.089335 24.2756,5.15588 20.83835,44.89912 15.68247,-1.933454 -3.22243,19.334549 -19.76421,21.268002 3.81197,19.79007 -13.04958,12.43418 0.85931,10.31176 -18.04558,19.76421 -15.84479,1.24676 -15.520146,-40.77517 4.726223,-14.17868 -7.948647,-19.11972 -2.925178,-9.2668 L 75.929255,92.977769 51.438825,97.91882 41.341894,90.39983 35.111873,79.443586 35.326701,56.456954 54.876079,29.173756 73.136487,27.025473"
       id="path966"
       inkscape:connector-curvature="0"
       sodipodi:nodetypes="cccccccccccccccccccccccccccccccccccccccccccccccccc" />
    <path
       style="fill:none;stroke:#000000;stroke-width:0.26458332px;stroke-linecap:butt;stroke-linejoin:miter;stroke-opacity:1"
       d="m 185.74862,138.17439 3.0076,5.80036 -6.65968,22.55698 -6.75714,2.99847 -2.69531,-3.64296 1.57214,-10.05238 1.43546,-9.06734 z"
       id="path968"
       inkscape:connector-curvature="0" />
    <path
       style="fill:none;stroke:#000000;stroke-width:0.26458332px;stroke-linecap:butt;stroke-linejoin:miter;stroke-opacity:1"
       d="m 133.28842,125.20202 6.70414,7.5554 9.19315,-11.85197"
       id="path991"
       inkscape:connector-curvature="0" />
    <path
       style="fill:none;stroke:#000000;stroke-width:0.26458332px;stroke-linecap:butt;stroke-linejoin:miter;stroke-opacity:1"
       d="m 175.3394,169.5302 10.40922,-31.35581 -1.93102,21.3186 -8.16591,-12.72547"
       id="path993"
       inkscape:connector-curvature="0" />
    <path
       style="fill:none;stroke:#000000;stroke-width:0.26458332px;stroke-linecap:butt;stroke-linejoin:miter;stroke-opacity:1"
       d="M 118.25044,34.329637 138.65913,165.37492"
       id="path995"
       inkscape:connector-curvature="0" />
    <path
       style="fill:none;stroke:#000000;stroke-width:0.26458332px;stroke-linecap:butt;stroke-linejoin:miter;stroke-opacity:1"
       d="M 122.76183,183.20567 106.6497,39.270688"
       id="path997"
       inkscape:connector-curvature="0" />
    <path
       style="fill:none;stroke:#000000;stroke-width:0.26458332px;stroke-linecap:butt;stroke-linejoin:miter;stroke-opacity:1"
       d="M 106.91704,184.45243 91.404448,30.941401 35.111873,79.443586"
       id="path999"
       inkscape:connector-curvature="0" />
  </g>
</svg>
