<?xml version="1.0" encoding="UTF-8" standalone="no"?>
<!-- Created with Inkscape (http://www.inkscape.org/) -->

<svg
   xmlns:dc="http://purl.org/dc/elements/1.1/"
   xmlns:cc="http://creativecommons.org/ns#"
   xmlns:rdf="http://www.w3.org/1999/02/22-rdf-syntax-ns#"
   xmlns:svg="http://www.w3.org/2000/svg"
   xmlns="http://www.w3.org/2000/svg"
   xmlns:sodipodi="http://sodipodi.sourceforge.net/DTD/sodipodi-0.dtd"
   xmlns:inkscape="http://www.inkscape.org/namespaces/inkscape"
   width="140.2534mm"
   height="160.179mm"
   viewBox="0 0 140.2534 160.179"
   version="1.1"
   id="svg8"
   sodipodi:docname="africa-map2.svg"
   inkscape:version="0.92.5 (2060ec1f9f, 2020-04-08)">
  <defs
     id="defs2" />
  <sodipodi:namedview
     id="base"
     pagecolor="#ffffff"
     bordercolor="#666666"
     borderopacity="1.0"
     inkscape:pageopacity="0.0"
     inkscape:pageshadow="2"
     inkscape:zoom="1.2316035"
     inkscape:cx="160.05804"
     inkscape:cy="340.60648"
     inkscape:document-units="mm"
     inkscape:current-layer="layer1"
     showgrid="false"
     inkscape:window-width="1848"
     inkscape:window-height="1136"
     inkscape:window-x="72"
     inkscape:window-y="27"
     inkscape:window-maximized="1"
     fit-margin-top="0"
     fit-margin-left="0"
     fit-margin-right="0"
     fit-margin-bottom="0" />
  <metadata
     id="metadata5">
    <rdf:RDF>
      <cc:Work
         rdf:about="">
        <dc:format>image/svg+xml</dc:format>
        <dc:type
           rdf:resource="http://purl.org/dc/dcmitype/StillImage" />
        <dc:title></dc:title>
      </cc:Work>
    </rdf:RDF>
  </metadata>
  <g
     inkscape:label="Layer 1"
     inkscape:groupmode="layer"
     id="layer1"
     transform="translate(-34.037731,-24.530469)">
    <path
       style="fill:#000000;stroke-width:0.18939452"
       d="m 106.91705,184.45246 c -1.84744,-0.68017 -2.44434,-1.33359 -2.44434,-2.67585 0,-1.87306 -1.6221,-5.61249 -3.89481,-8.97872 -1.712633,-2.53666 -2.006583,-3.3532 -2.439543,-6.77671 -0.613288,-4.84924 -1.733318,-8.55182 -3.990588,-13.19197 -2.00618,-4.12399 -2.2097,-4.81642 -2.31617,-7.88016 -0.0804,-2.31458 -0.0421,-2.74124 0.39276,-4.37521 0.26504,-0.99579 1.08388,-3.10867 1.81965,-4.69528 0.73577,-1.58661 1.33676,-3.06949 1.33552,-3.29527 -0.001,-0.22579 -0.12829,-0.87927 -0.28234,-1.45219 -0.15405,-0.57292 -0.37327,-2.02179 -0.48717,-3.21971 -0.16762,-1.76305 -0.31047,-2.38053 -0.74972,-3.24084 -0.29846,-0.58454 -0.84371,-1.99407 -1.21167,-3.13229 -0.81285,-2.51439 -1.614892,-3.86097 -3.65501,-6.13652 -2.011993,-2.24418 -2.702779,-3.59008 -2.702779,-5.26597 0,-0.68079 0.306785,-2.7576 0.681744,-4.61513 0.781857,-3.87327 0.771025,-3.93509 -0.689445,-3.93509 -1.452997,0 -1.507456,-0.0547 -1.507456,-1.51516 0,-0.997247 -0.06713,-1.310987 -0.299582,-1.400187 -0.164769,-0.0632 -1.235716,-0.11496 -2.379882,-0.11496 -1.144165,0 -2.241485,-0.0863 -2.438489,-0.1917 -0.206124,-0.11031 -0.41034,-0.49224 -0.481036,-0.89962 -0.202193,-1.16517 -0.862813,-1.98436 -2.092726,-2.59506 -0.645007,-0.32027 -1.403229,-0.54876 -1.7985,-0.54198 -0.375853,0.006 -2.210383,0.53486 -4.076736,1.17425 -5.411172,1.85382 -5.78176,1.94253 -7.929327,1.89812 -3.331986,-0.0689 -4.24947,0.006 -6.312679,0.51857 -2.5529,0.63364 -5.137815,0.71056 -6.611494,0.19673 -1.38693,-0.48359 -3.429073,-1.87088 -5.541793,-3.76472 -2.246679,-2.01391 -3.289699,-3.35019 -4.404672,-5.64311 -1.257304,-2.58561 -3.677659,-5.781778 -4.747484,-6.269222 -0.609329,-0.27763 -0.885754,-0.921094 -0.885754,-2.061869 0,-0.509785 -0.08091,-0.976889 -0.179804,-1.038008 -0.105007,-0.0649 -0.133436,-0.768187 -0.06834,-1.690617 0.08467,-1.199796 0.03684,-1.798523 -0.198984,-2.490618 -0.406986,-1.194437 -0.391625,-1.748354 0.07792,-2.80984 0.213805,-0.483342 0.527729,-1.920084 0.698412,-3.196434 0.289086,-2.161755 0.288219,-2.51687 -0.01283,-5.254071 -0.351627,-3.197111 -0.405804,-6.109595 -0.135339,-7.275697 0.0946,-0.407873 0.592491,-1.345375 1.10642,-2.08334 0.513929,-0.737964 1.442087,-2.236643 2.062574,-3.330397 1.498648,-2.641716 1.956448,-3.351792 3.009371,-4.66772 1.557773,-1.946881 2.80005,-3.119749 3.773202,-3.562381 0.601431,-0.273557 1.437733,-0.941124 2.291924,-1.829496 1.474509,-1.533514 1.969453,-2.326206 1.969453,-3.154239 0,-0.761712 0.52852,-2.475662 1.006342,-3.263487 0.580231,-0.956678 1.984374,-2.417035 2.970943,-3.089883 1.470921,-1.003181 2.41746,-1.864342 3.143784,-2.860214 1.089488,-1.493811 1.660378,-1.876918 2.934204,-1.969059 0.997066,-0.07212 1.217568,-0.01242 2.387184,0.646368 2.124425,1.196581 3.497706,0.981158 7.235041,-1.13494 l 1.85525,-1.050451 4.621931,-0.02746 c 3.967849,-0.02358 8.17098,-0.245396 12.778736,-0.674401 0.993869,-0.09253 1.276836,-0.04026 2.093401,0.386708 0.81283,0.425017 0.991861,0.626264 1.286815,1.446488 0.28606,0.795525 0.44689,2.723107 0.29213,3.501372 -0.1032,0.518958 0.0701,0.897684 0.69833,1.525886 0.83393,0.833931 1.45227,1.107065 4.06529,1.795729 2.777508,0.732013 3.228058,0.952235 4.071681,1.990186 1.11671,1.373945 1.56231,1.751617 2.2199,1.881515 0.33031,0.06525 1.30232,0.33581 2.16001,0.601246 1.64379,0.508714 2.37708,0.486422 2.60494,-0.07919 0.0738,-0.183192 0.20152,-0.855581 0.28382,-1.494198 0.1809,-1.403716 0.49359,-2.086713 1.19199,-2.603626 0.44211,-0.327218 0.79138,-0.38703 2.17804,-0.372978 1.93634,0.01962 3.46365,0.387337 5.48879,1.321474 0.80616,0.371862 1.9345,0.841712 2.50742,1.044111 2.90454,1.026111 7.79283,1.659861 10.07353,1.305998 2.13713,-0.331586 4.92724,0.29753 5.55264,1.252016 0.18652,0.284669 0.38102,1.153439 0.47481,2.120891 0.22379,2.308454 0.61351,3.268525 3.12536,7.69933 0.64958,1.145837 1.79877,3.319139 2.55376,4.829561 0.75499,1.510421 1.78107,3.342813 2.28017,4.071982 0.96688,1.412565 1.50683,2.898016 1.50984,4.153706 0.003,1.067844 0.68387,2.427778 2.30684,4.604582 0.76148,1.021339 1.58533,2.323667 1.83078,2.894062 0.24546,0.570396 0.59991,1.385599 0.78768,1.811565 0.21573,0.48941 0.91889,1.2911 1.91034,2.178037 4.43899,3.971035 5.79633,5.68533 6.69532,8.4561 0.58837,1.813386 1.73057,2.203452 4.9271,1.682615 2.03009,-0.33078 4.58171,-1.029841 7.3738,-2.020185 2.62474,-0.930985 3.17475,-0.600162 3.55417,2.137772 0.27894,2.012817 -0.0695,3.656081 -1.39273,6.567651 -0.60585,1.3331 -3.85886,7.46878 -5.02875,9.48498 -1.26072,2.172737 -1.6179,2.569407 -4.40574,4.892907 -3.70006,3.08379 -4.71736,4.04629 -6.03844,5.71319 -0.70173,0.88542 -1.98963,2.41951 -2.86201,3.4091 -5.45332,6.18602 -6.08401,9.09172 -3.29436,15.17758 1.20573,2.6304 1.244,2.78644 1.41013,5.75051 0.0817,1.45834 0.20697,3.63164 0.27829,4.82956 l 0.12967,2.17804 -0.81014,1.6041 c -1.0168,2.01327 -2.05774,3.05359 -4.25026,4.24771 -2.74312,1.494 -3.48613,2.01208 -3.79163,2.64378 -0.15835,0.32744 -1.05661,1.44762 -1.99613,2.48929 -1.92416,2.13336 -1.87743,1.93699 -1.01401,4.26138 0.39948,1.07544 0.52932,1.76548 0.53458,2.84092 0.0144,2.95361 -0.67057,3.99183 -3.69263,5.59674 -2.33935,1.24235 -2.48324,1.48838 -2.32499,3.97544 0.14801,2.32616 0.12335,2.38189 -2.13986,4.83603 -0.91982,0.99741 -2.31031,2.57412 -3.08999,3.5038 -3.88849,4.63658 -5.14841,5.79501 -7.22047,6.63886 -1.44631,0.58901 -3.05191,0.77915 -7.74456,0.91713 -1.92709,0.0567 -3.9669,0.18762 -4.5329,0.29103 -1.3942,0.25472 -3.18144,0.2149 -4.00765,-0.0893 z m 3.7751,-0.28509 c 0.53245,-0.10098 2.56823,-0.23069 4.52397,-0.28824 5.10325,-0.15017 6.99118,-0.4248 8.61493,-1.25318 1.08678,-0.55443 2.97483,-2.42192 5.98157,-5.91644 1.50993,-1.75487 3.32706,-3.81809 4.03807,-4.58492 0.71102,-0.76683 1.33731,-1.58955 1.39176,-1.82827 0.0545,-0.23872 0.0783,-1.34229 0.0529,-2.45237 -0.0533,-2.33364 0.0557,-2.54277 1.81022,-3.47307 2.02932,-1.07603 3.32014,-2.01336 3.60403,-2.61707 0.82207,-1.74816 0.76059,-3.96838 -0.17355,-6.26731 -0.71269,-1.75394 -0.65746,-1.96712 0.97264,-3.75394 0.78641,-0.86202 1.73061,-2.01798 2.09821,-2.56879 0.72073,-1.07993 1.14882,-1.39806 3.76364,-2.79691 2.15435,-1.15251 3.45279,-2.3728 4.38316,-4.11934 0.68901,-1.29346 0.72555,-1.4491 0.72011,-3.06716 -0.009,-2.646 -0.27707,-6.9068 -0.50065,-7.95457 -0.11114,-0.52083 -0.61594,-1.85869 -1.12179,-2.97302 -1.36279,-3.00212 -1.74893,-4.58613 -1.63746,-6.71724 0.0785,-1.50033 0.18575,-1.9419 0.77123,-3.17476 0.92338,-1.94437 1.53557,-2.8081 4.10403,-5.79034 1.21114,-1.40625 2.67642,-3.15589 3.25619,-3.88809 0.988,-1.24776 2.72442,-2.84511 6.31311,-5.80748 2.69214,-2.22229 3.25591,-3.072517 7.19693,-10.853727 3.21669,-6.35108 3.4297,-7.165511 2.71547,-10.382413 -0.32355,-1.457302 -0.8684,-1.500927 -3.84744,-0.30806 -2.84018,1.137259 -7.70784,2.06369 -9.4614,1.800727 -1.24513,-0.186718 -1.89243,-0.818141 -2.396,-2.337219 -0.77502,-2.337926 -2.32817,-4.365417 -5.23333,-6.831614 -2.48578,-2.110183 -2.96523,-2.693596 -3.73858,-4.549281 -0.65402,-1.569336 -1.12953,-2.351382 -2.49098,-4.09677 -1.16104,-1.488456 -1.96788,-3.201972 -1.96807,-4.179654 -1.9e-4,-1.23239 -0.49688,-2.575422 -1.54465,-4.177094 -0.53673,-0.820472 -1.44132,-2.429271 -2.0102,-3.575107 -0.56888,-1.145837 -1.79595,-3.465746 -2.72681,-5.155352 -2.59557,-4.711194 -2.98557,-5.646136 -3.16462,-7.586601 -0.2321,-2.515278 -0.49494,-2.823652 -2.85394,-3.348343 -1.20149,-0.26724 -1.60086,-0.279458 -2.70204,-0.08266 -1.01683,0.181716 -1.80603,0.181602 -3.70377,-5.69e-4 -3.29339,-0.316088 -5.38394,-0.801254 -7.87675,-1.827997 -4.14256,-1.706248 -6.01976,-2.145063 -7.63134,-1.783902 -1.45395,0.325838 -1.6225,0.608954 -2.06026,3.460683 -0.13495,0.879131 -0.67382,1.457243 -1.35831,1.457243 -0.56559,0 -3.79175,-0.84512 -4.71983,-1.2364 -0.32498,-0.137013 -0.96419,-0.738369 -1.42046,-1.336345 -1.015523,-1.330913 -1.544563,-1.613573 -4.431561,-2.367707 -2.65888,-0.694543 -3.08039,-0.889646 -4.07857,-1.887823 l -0.74751,-0.747474 -0.004,-1.846596 c -0.005,-2.45122 -0.366682,-3.306679 -1.632413,-3.866572 -0.721542,-0.319172 -1.090405,-0.368799 -1.946896,-0.261938 -3.009574,0.375492 -5.001453,0.487647 -10.707857,0.602919 l -6.242061,0.126092 -1.996601,1.113862 c -2.45178,1.367797 -4.239564,1.954005 -5.452282,1.787784 -0.476164,-0.06527 -1.39876,-0.41674 -2.050215,-0.781053 -1.322129,-0.739378 -2.533401,-0.875652 -3.259945,-0.36676 -0.232137,0.162595 -0.884321,0.874975 -1.449294,1.583066 -0.564974,0.708091 -1.693727,1.781359 -2.50834,2.385039 -1.916655,1.420372 -2.794895,2.260314 -3.463056,3.312048 -0.604397,0.951364 -1.14306,2.601245 -1.14306,3.501094 0,1.298322 -2.596069,4.304153 -4.410402,5.106537 -1.707291,0.755045 -4.164572,3.697806 -6.33417,7.585601 -0.581308,1.04167 -1.548004,2.628835 -2.148213,3.527033 -0.600209,0.898198 -1.183044,1.963542 -1.295188,2.367432 -0.290968,1.047925 -0.253841,3.640053 0.09676,6.755799 0.418878,3.722478 0.103886,7.517412 -0.769244,9.267642 -0.369693,0.741067 -0.367226,1.243883 0.01054,2.148 0.213579,0.511166 0.287418,1.195276 0.252915,2.343211 -0.0268,0.8917 0.0015,1.749114 0.06288,1.905364 0.06139,0.156251 0.149931,0.750237 0.196762,1.319968 0.06239,0.758999 0.180103,1.088049 0.440398,1.231065 1.402026,0.770326 4.624017,5.110335 5.514025,7.427375 0.447393,1.16474 0.737107,1.5311 2.971521,3.75773 4.974695,4.95737 7.499638,5.88388 12.513706,4.59186 2.430155,-0.6262 3.620905,-0.74738 5.48358,-0.55805 2.076567,0.21108 2.965575,0.0325 7.896942,-1.58598 4.918239,-1.6142 5.722122,-1.71752 7.288841,-0.93679 1.283428,0.63956 1.739452,1.1723 2.129204,2.48741 l 0.329012,1.11016 2.49007,0.0947 c 1.36954,0.0521 2.574707,0.17992 2.678149,0.28409 0.103441,0.10417 0.213883,0.74337 0.245427,1.42046 l 0.05735,1.231057 1.190689,0.0948 c 1.225885,0.0976 1.546952,0.31063 1.552632,1.03015 0.0015,0.20206 -0.304828,1.86399 -0.680941,3.69319 -1.060479,5.15758 -0.889287,5.91649 2.096019,9.29175 2.071436,2.34202 2.624496,3.28422 3.639856,6.20092 0.46268,1.32909 1.03614,2.75744 1.27436,3.17412 0.3314,0.57964 0.4846,1.29137 0.6523,3.03031 0.12055,1.25 0.34581,2.74148 0.50058,3.3144 0.46191,1.70983 0.37866,2.1726 -0.8441,4.69264 -2.67872,5.52066 -3.13189,9.0887 -1.69795,13.36873 0.31809,0.94945 0.98983,2.49423 1.49275,3.43286 2.19491,4.09652 3.501838,8.51124 4.251218,14.36036 0.3344,2.61007 0.65007,3.38871 2.471503,6.0963 2.02147,3.00494 3.70342,6.83401 3.70342,8.43107 0,1.56802 0.23183,1.83136 2.46213,2.79672 0.6041,0.26148 2.13522,0.28277 3.37851,0.047 z m 47.63372,-18.58675 c -1.35388,-0.24646 -2.25702,-0.82754 -2.68154,-1.72528 -0.42236,-0.89321 -0.79267,-3.78234 -0.79267,-6.18434 0,-1.57579 0.0134,-1.61289 1.61267,-4.4677 l 0.73837,-1.31802 0.11589,-3.51154 c 0.1019,-3.08764 0.16512,-3.60655 0.52375,-4.29856 0.40636,-0.78415 1.22623,-1.58028 1.62768,-1.58056 0.53532,-3.8e-4 2.61761,-1.19421 3.90439,-2.2385 1.68263,-1.36552 3.0251,-2.86678 3.69746,-4.13479 0.77936,-1.46978 1.11767,-1.77053 1.99174,-1.77053 0.54949,0 0.89182,0.12439 1.20542,0.43799 0.63406,0.63406 1.24883,2.43796 1.45789,4.27789 0.28016,2.46562 0.0871,3.23677 -3.31758,13.2507 -0.68577,2.01702 -1.46434,4.48861 -1.73015,5.49245 -1.02162,3.8581 -1.6274,5.35637 -2.54627,6.29768 -0.73849,0.75653 -1.03146,0.91411 -2.17897,1.17207 -1.76779,0.39739 -2.68207,0.47325 -3.62808,0.30104 z m 3.0599,-0.58561 c 2.6894,-0.57684 3.42223,-1.63074 4.74338,-6.82155 0.50896,-1.99972 1.57922,-5.31034 3.10934,-9.61807 0.53651,-1.51042 1.27574,-3.89679 1.64274,-5.30304 0.57318,-2.19632 0.649,-2.72996 0.5377,-3.78472 -0.28633,-2.71368 -1.28889,-4.73804 -2.3465,-4.73804 -0.60917,0 -1.0595,0.47239 -1.71525,1.79925 -0.58863,1.19104 -3.46247,4.08078 -5.12004,5.14839 -0.67659,0.43577 -1.60425,0.90452 -2.06147,1.04167 -1.94992,0.58489 -2.48309,1.85592 -2.48309,5.91947 0,1.46616 -0.0839,2.95817 -0.18637,3.31557 -0.1025,0.35741 -0.63117,1.42054 -1.17482,2.36253 -0.94709,1.64101 -0.99138,1.78023 -1.05818,3.32621 -0.0774,1.79163 0.33947,5.15765 0.74005,5.97531 0.37969,0.77503 1.14958,1.26371 2.37706,1.50881 1.12184,0.22401 1.39204,0.21212 2.99545,-0.13179 z"
       id="path849"
       inkscape:connector-curvature="0"
       sodipodi:nodetypes="csccsccscscccssssscscccccscccccscscssccsssssscssccscccccccssccssccccscccscccccccssccsccssccccccccccscsccccccscccccccsccscccccccsssccscscccsscccccsccsccscccssscsccsscsssssccsccccssssccsscccccccsscccccccscscccccsccsccccssccccccsccccscccscccccs" />
    <path
       style="fill:#000000;stroke-width:0.18939452"
       d=""
       id="path845"
       inkscape:connector-curvature="0" />
    <path
       style="fill:none;stroke:#000000;stroke-width:0.26458332px;stroke-linecap:butt;stroke-linejoin:miter;stroke-opacity:1"
       d="M 37.904641,83.95498 83.01859,25.521675 152.83779,113.38646 93.33035,149.69245 153.91194,75.14702 117.60595,184.06498 83.233419,26.380989 65.617495,96.844681 39.838096,49.152791 148.75606,69.346654 84.715259,98.461517 125.76943,109.51955 102.99762,61.183177 134.57739,42.278285 107.50902,37.337233 164.65335,101.78573"
       id="path902"
       inkscape:connector-curvature="0"
       sodipodi:nodetypes="cccccccccccccccc" />
    <path
       style="fill:none;stroke:#000000;stroke-width:0.26458332px;stroke-linecap:butt;stroke-linejoin:miter;stroke-opacity:1"
       d="m 171.31303,141.09931 -10.95624,1.5038 6.8745,10.31176 -11.3859,8.37831"
       id="path904"
       inkscape:connector-curvature="0" />
    <path
       style="fill:none;stroke:#000000;stroke-width:0.26458332px;stroke-linecap:butt;stroke-linejoin:miter;stroke-opacity:1"
       d="M 39.838096,49.152791 142.74086,149.47762 102.56797,175.04219"
       id="path906"
       inkscape:connector-curvature="0" />
  </g>
</svg>
