<svg xmlns="http://www.w3.org/2000/svg" xmlns:xlink="http://www.w3.org/1999/xlink" style="isolation: isolate;" width="300" height="300" viewBox="0 0 300 300">
    <defs>
        <clipPath id="_clipPath_northamerica"><rect width="300" height="300" /></clipPath>
    </defs>
    <g clip-path="url(#_clipPath_northamerica)">
        <path
            fill="none"
            fill-rule="evenodd"
            stroke="#ffffff"
            stroke-linecap="square"
            stroke-linejoin="miter"
            stroke-miterlimit="3"
            stroke-width="1"
            d="
m120.3896 2.5-4.4551 1.6504-2.7949.25-1.6592-.9551-4.3701.0352-3.8506 1.6094-2.0596-.6094-6.7598.335-6.9307.7295-3.9346 1.2402-2.5801 1.6895-4.4199.71-3.9307 2.2354L70.8701 11.375 66.6348 10.4697 62.75 10.7549 60.2852 9.0195 57.2754 9l-1.2852 2.5098-2.7305 4.2305-3.0352 1.6895-4.0996 1.8701-2.6299 2.7598-.5449 2.1553-1.5557 3.5156 1.0205 5.085-3.4102 3.415-2.0498 1.0898-3.2197 2.79-3.8008.4551-2.0547 1.5693-.0752.0557-2.5947 4.1748-2.7197 1.4902-1.4756 2.5244-.0996 2.1797-1.0801 2.3857-1.375.6543-2.2754 2.6006-1.4043 2.8848.2598 1.3848-1.335 2.1299-1.5703 1.1103-.1943 1.8955-.1758 1.7295 2.1553 1.7647 1.0547 1.9404-.4043 2.04.4893 2.0303.4551 4.04-.5098 3.8496-1.1397 2.0147.3545 2.2051-.9697 2.1006-1.9805 2.8643-1.7998.7803 2.04 1.4551 1.6855 3.1797-.5205 1.8154.6699 3.1348.2607.8701 1.2441.8701-.0244.6201.9395 1.1553 1.7207.2695 2.1797 1.71 1.1904.6699.5996.9004.4648 1.8047 1.0205.8105 1.0449.5293 1.5898 1.6006 1.7949 2.4199.5 3.0195.7148 1.4951 2.1299 2.1904 2.9404 1.6445 1.0996.3047 2.7549 2.6357 3.4805 2.2393 3.7148 3.1103 4.2148 1.9502 1.0703-.0401.79.1104 4.0449-1.5 2.8398-1.1807 4.8398-.7148 2.625-.0449 2.8506.7998 1.8594-.0449 3.6455 1.165 3.6797-1.1894 2.2754-1.4004 6.4092-2.3897 3.29-.875 3.375-.4756h3.6103l3.0703-.0498 2.8945 2.6953 1.3447 2.9551 2.1904 2.5596 3.2695.0898 1.5703-.915 1.5498.2148 4.2451-1.4746-.0449 1.1299 1.0449.585.8301 1.835 1.8652.6904 1.5996 2.7051-.5996 3.2246-1.4053 4.5898.7705.6201-.8252 3.0303-.9951 2.9746-.8897 1.3057-.1357 1.3594 2.4853 4.2256 2.7002 3.3691 4.2002 4.125 3.3594 4.3301 1.0898 3.0752.5752 1.2656-.3896.7949 2.0498 2.5898.835 2.7344 1.2402 3.9502-1.2549 1.6201-.2207.8496 1.0059 2.4502 1.085 2.4805 1.2246 1.46.2148 2.3203-.4297 3.0244-1.3154 1.8203-2.3447 2.6748-.9746 1.6748-1.3252 3.6855-.2148 1.7549-1.4102 3.7402-.5654 3.5947.3857 2.5693.2441 3.1357 3.3301 3.9951.8906 2.5645 2.1494 4.9053 2.1104 3.375 1.5898 1.6846.5254 2.2305.0898 4.8896 1.3701 6.2949 1.0049 2.96.9053 3.9805 1.5996 2.9844 3.0352 3.0908 2.9346 5.3096.005.0097 2.0557 3.4648 2.6797 3.8252.1055 3.1357-1.3203.7441 1.3301 2.7402-.0254 2.3955.5449 1.0996.1904-.5654 1.7647 1.8252 1.3799.0703 1.7305 1.46 1.8594-.0996 2.5254-1.5449 3.4902-.6455 4.2148-1.6152 1.6904.2148 2.4795-.5 4.4297.79 2.0205-.7793 2.4844.6045.5303-1.1348 2.0801-.21 4.2754-1.5898 3.085-1.8603 2.8848-2.4502 4.6201-4.2197 2.3203-2.9248 1.1397-2.1006 1.7295-2.0791.8008-.5908 2.79-2.0645 1.0547-1.8447.4854-3.3955 1.0195-2.9746.3496-2.1504-1.0449-.2754-.3496-1.7246 1.7949-1.5098 4.915-2.2148 3.375-1.3799 1.7051-1.4551.6103-1.7002-.9658-.7002.665-1.9004.1152-4.0049-.7197.2002-.0547-1.2197-.8057-2.4004-1.9395-3.0947.3496-2.915 1.6797-.9453 2.8555-2.8994 1.5752-.75 4.6143-4.3857 4.6104-1.9844 3.7354-1.5557 2.6045-2.5342 1.585-2.835 1.2207-2.9258-.7207-2-.1602-6.3896-.5049-3.585.1699-4.0703-.6592-1.835-1.5-.8945-1.6953-4.0303-1.4248-2.5596.2646-1.9551-.2354-1.2402 1.1309-2.4697-.125-1.0654-2.6152-1.4854-.2451-2.3193 1.8897-5.0352 1.6455-1.3496.7949-2.7207 1.3145-1.6494.5801-2.8799 1.5303-.3008 1.0098-1.7051 2.8652-1.6299.9199-.9697.9453-2.1553 4.4746-4.9492 3.8105-3.1104 6.1143-4.0605 4.0908-3.3096 4.8047-5.5752 3.4902-4.5752 3.5098-5.9893 2.5244-5.2207 1.9707-4.5693 1.1494-4.415.8652-1.4805-.0146-2.1445.375-2.3799-.0957-1.1309-1.5498.0107-1.9297 1.3994-2.1699.4102-1.8848.6103-1.3057.0801-2.3252.1445-1.46.7451-2.0293.2705-3.5957 1.2695-4.4492.4854-3.8555 1.0449-2.0303-.0156-1.8447-1.71-.7998-1.6895-1.3301-.7549-1.7549-1.1201 2.335-.9756.125-1.6992-.9648-1.2656-2.0098-1.2295-1.2803-1.4053-2.2148-2.3555-2.2705-2.3291-5.5801-3.8652-2.2402-1.9902-1.125-3.75-2.375-4.7354-2.2344-1.5098-1.5605-1.0049-1.5-4.8799-.5947-4.21.9004-.7402-1.3203-4.0098-.7197-.835-4.7598-3.6699-.1309-2.6602.8105-.71-3.665-4.5254-1.3154-2.3096-1.5098-2.2197-3.0898-6.3701-2.5098-4.1104-1.6904-4.3096.4199-.3701 2.915 5.8545 1.8447 1.8252 1.3603 1.3203.9551-.7148 1.1103-2.125.8799-3.0908 1.1494-1.6445-.4043-1.0605-2.2803-5.96-2.0147 1.0303-3.1855-.2295-3.2744-.9707-.9502 1.3408-1.1104-2.0303-2.9102-.5156-3.6045.335-1.6807 1.1758-3.1494 1.2949-1.8906-.6406-4.0596-1.2051-3.9346-1.085-5.4355.0703-1-1.3496-4.0596-.4805-1.3008-.6943-1.5195-.0205-1.3945-1.8252-5.5303-.8398-2.8154.5605-2.9443 1.9141-1.2852 1.9902.9551 3.1299-1.96 1.8799-1.9951 1.0605-4.3506-2.0303-5.7646-1.7148-3.6699-.79-1.9102-3.6348-5.4248-1.8252-3.415-.6846-1.7197.3545-4.8008-1.4102-1.5547-.6396-1.0254-1.9404-2.1143-.0693L123 14.8398 125.6953 12.7852 126.2305 9.25l-1.415-1.0146.0293-1.8955 2.04-2-.29-.7852-3.4648 1.5049L123.25 2.9902Zm162.2158 201.8896-1.3555 1.8301-.0752 2.4551-2.2549 2.8398-1.7353-.4893.5557 1.7441-1.2256 2.0606-3.3643 2.5146-2.3301 2.3301-1.7949.0557-1.5156.7393-2.2793.8398-2.0352.1504-.5508 2.5898-1.4248 2.29.3252 3.7656.7754 2.5742.9492 1.9355-.3691 2.6045-1.9551 3.1006-.0107 1.3594-1.8799.71-.7344 2.9453.375 2.9404 1.4395 3.2598.2705 3.625 1.125 2.1553 3.2451 1.4648 2.3545 1.04 3.5703-1.7305 3.3252-.9648 1.8447-4.7402 1.5645-5.6846 2.5254-7.7451 2.0205-5.6299 1.6094-4.7656.2549-3.4648 1.1299-.9443.3604-1.7305-.7803-3.0303.7705-1.21 1.3897 2.3955.7197-1.2002.4102-1.96L286.7852 215.5 286.125 210.585l-1.0098-2.7002-1.085-1.7402z
        "
            vector-effect="non-scaling-stroke"
        />
    </g>
</svg>
