<?xml version="1.0" encoding="utf-8"?>
<!-- Generator: Adobe Illustrator 24.3.0, SVG Export Plug-In . SVG Version: 6.00 Build 0)  -->
<svg version="1.1" id="Layer_1" xmlns="http://www.w3.org/2000/svg" xmlns:xlink="http://www.w3.org/1999/xlink" x="0px" y="0px"
	 viewBox="0 0 300 300" style="enable-background:new 0 0 300 300;" xml:space="preserve">
<style type="text/css">
	.st0{fill:none;stroke:#000000;stroke-miterlimit:10;}
</style>
<g>
	<g>
		<path class="st0" d="M239.6,205.2c0-1-0.2-2.5-0.5-3.3c-0.6-1.9-2.2-5.4-2.5-5.5c-0.1,0-0.5,0.4-0.8,0.9c-0.3,0.6-0.6,1.6-0.7,2.4
			c-0.1,1.8-0.4,2-1.4,1.4c-0.7-0.4-0.8-0.4-0.8,0.1c0,0.3,0.3,0.7,0.6,0.8c0.3,0.1,0.1,0.1-0.4,0c-1-0.2-1.1,0-1,1.6
			c0,0.4-0.1,0.8-0.4,1c-0.2,0.1-0.4,0.6-0.4,1.1c0,0.6-0.2,0.7-0.6,0.6c-0.4-0.2-0.6,0-0.6,0.4c0,0.8-3,3-5.3,3.7
			c-0.9,0.3-1.9,0.7-2.1,0.9c-0.3,0.2-0.8,0.3-1.4,0.3c-0.8,0-1,0.2-1,1.1c0,0.7-0.4,1.7-0.8,2.4c-0.8,1.3-0.8,2.3,0,7.2
			c0.5,2.8,0.5,2.9-0.7,5.3c-0.7,1.3-1.4,2.5-1.6,2.7c-1.5,1.1-2,4.9-1,6.9c0.3,0.7,0.5,1.9,0.4,3c-0.1,1.1,0,2,0.3,2.1
			c0.3,0.2,0.5,0.6,0.5,1.1c0,0.9,1.3,2.2,2.2,2.2c0.4,0,0.7,0.2,0.7,0.4c0,0.6,2.2,0.5,3.1-0.2c0.5-0.3,1.4-0.6,2-0.6
			c1.3,0,2.9-1.7,2.9-2.9c0-0.4,0.3-1.1,0.6-1.5c0.3-0.5,0.8-1.9,1.1-3.2c0.3-1.3,0.9-3,1.3-3.9c0.4-0.8,1-2.5,1.3-3.6
			c0.3-1.1,1.2-3.9,2.1-6.2c0.9-2.2,1.7-4.8,1.9-5.7c0.5-3.1,0.6-3.5,1.2-3.4c0.5,0.1,0.6-0.3,0-3.5l-0.3-1.9l0.8,1l0.8,1.1l0.7-1.4
			c0.5-1,0.6-1.6,0.3-2.2C239.8,207.4,239.6,206.2,239.6,205.2z M243.4,113.6c-0.4-0.1-0.6-2.4-0.3-3.9c0.2-1.2-1.6-1.7-2.5-0.7
			c-0.9,0.9-4.6,2.2-5.5,1.9c-0.3-0.1-1.1,0-1.7,0.3c-0.6,0.3-1.4,0.4-2,0.3c-0.6-0.2-1.4,0.1-2.1,0.6c-0.8,0.6-1.6,0.8-2.6,0.7
			c-0.9-0.1-1.9,0-2.7,0.6c-2.2,1.4-3.8,0.8-5.5-1.9c-0.4-0.6-1.2-1.3-1.8-1.4l-1-0.3l1-0.5c1.6-0.8,1.4-2-0.6-4.2
			c-1-1.1-2.1-2.3-2.5-2.8c-0.3-0.5-0.8-0.9-1.1-0.9c-0.2,0-0.8-0.6-1.1-1.3c-0.4-0.7-1.1-1.4-1.5-1.6c-0.4-0.2-1-0.6-1.3-0.8
			c-0.3-0.3-0.8-0.4-1.1-0.3c-0.4,0.1-0.6-0.2-0.8-0.8c-0.2-0.8,0-1.1,0.4-1.1c0.5,0,0.5-0.1,0-0.6c-0.8-0.8-1-0.8-1.3,0.3
			c-0.3,1-0.3,1-0.9,0.1c-0.4-0.5-0.8-1.6-1.1-2.5c-1.2-4.9-1.8-6.1-3.9-7.7c-2.4-1.9-3-3.2-3.1-7.3c-0.1-1.6-0.4-3.2-0.6-3.6
			c-0.3-0.4-0.6-1.1-0.6-1.7c0-0.6-0.1-1.1-0.3-1.1c-0.1,0-1-0.7-2-1.6c-2-1.8-3.2-4.7-1.9-4.7c0.5,0,0.3-0.3-0.5-1
			c-0.6-0.6-1.6-2.1-2.3-3.5c-0.7-1.4-1.7-3.2-2.2-4.1c-0.5-0.9-0.9-1.8-0.9-2.1s-0.3-1-0.7-1.6c-0.4-0.6-0.8-1.4-0.8-1.8
			c-0.1-0.5-0.8-1.6-1.6-2.5c-0.8-0.9-1.5-2.2-1.5-2.7c0-0.6-0.2-1.1-0.4-1.2c-0.3-0.1-0.6-1.6-0.7-3.2c-0.1-1.6-0.5-3.3-0.8-3.7
			c-1.1-1.5-6.1-1-8,0.8c-0.5,0.5-1.2,0.7-1.7,0.6c-0.5-0.1-1.7-0.4-2.8-0.6c-1.1-0.3-2.3-0.6-2.8-0.8c-1.5-0.7-4.4-1.2-5.4-1
			c-0.8,0.2-1.1,0-1.4-0.7s-0.6-0.9-1.6-0.9c-2.3,0-4.4-0.8-4.7-1.7c-0.1-0.5-0.6-0.8-1.1-0.8c-0.5,0-1-0.2-1.1-0.4
			c-0.6-1-4.7-0.1-6.6,1.5c-1.3,1.1-1.7,3.1-0.9,4.4c0.7,1.1-1,3.4-2.5,3.4c-0.3,0-1.4-0.6-2.3-1.2c-1.7-1.3-4.4-2.2-6.1-2.2
			c-1.5,0-2.8-1.1-3.1-2.6c-0.2-0.8-0.7-1.4-1.4-1.7c-0.6-0.3-1.7-0.7-2.4-1.1c-0.8-0.4-2.2-0.6-3.5-0.6c-1.4,0-2.8-0.3-3.9-0.8
			c-1.7-0.8-2.8-2.2-2.3-2.7c0.1-0.1,0-0.3-0.4-0.3c-0.4,0-0.7,0.2-0.7,0.4c0,0.7-1.2,0.5-1.7-0.4c-0.3-0.7-0.2-1,0.8-1.9
			c0.7-0.6,1.6-1,1.9-0.8c0.3,0.2,0.6,0,0.6-0.3c0-0.3-0.2-0.3-0.4-0.2c-0.3,0.2-0.3-0.3-0.2-1.4c0.2-1.4,0.1-1.8-0.6-2.2
			c-1.1-0.6-1.1-1.5-0.2-2.5c0.3-0.4,0.6-0.9,0.4-1.3c-0.1-0.3,0-0.5,0.2-0.3c0.3,0.1,0.4,0.1,0.4-0.1c0-0.8-0.6-0.9-1.4-0.2
			c-0.8,0.7-0.8,0.7-1-0.2c-0.2-0.7-1.2-1.4-2.3-1.4c-0.1,0-0.9,0.4-1.8,0.8c-1.4,0.8-3.6,0.9-4.6,0.2c-0.3-0.2-0.6,0-0.8,0.2
			c-0.2,0.4-0.6,0.4-1.5,0c-0.9-0.4-1.2-0.4-1.4,0C98.8,16.8,98.4,17,98,17c-0.4,0-1,0.3-1.2,0.5c-0.4,0.4-0.7,0.4-1.4,0
			c-1.1-0.7-2.3-0.6-8.1,0.3c-4.8,0.8-7.6,1.8-7.6,2.7c0,0.2-0.3,0.3-0.6,0.2c-0.3-0.2-0.7-0.1-0.8,0.1c-0.2,0.3-0.6,0.4-0.9,0.4
			c-0.3,0-1.1,0.5-1.7,1.1s-1.3,1.1-1.6,1.1c-1.1,0.1-2.6-0.1-3-0.4c-0.2-0.2-1.4-0.2-2.8,0c-2.7,0.4-4.2-0.3-4.6-1.8
			c-0.3-0.8-0.8-1-1.7-0.5c-0.3,0.2-0.9,1.4-1.5,2.6c-1.4,3.4-2.4,4.6-5,5.8c-2.5,1.2-5.1,3.5-5.1,4.5c0,0.4-0.4,1.3-0.9,2
			c-0.8,1-1,1.9-1,4c0,1.6-0.2,2.9-0.5,3.2c-0.3,0.3-0.6,0.8-0.6,1c0,0.2-0.7,1-1.5,1.7c-0.8,0.7-1.9,1.6-2.4,2c-1,0.9-3.4,2-4.4,2
			c-0.9,0-1.5,0.7-2.6,3.1c-0.6,1.1-1.1,2-1.3,2c-1.1,0-3.5,3.5-3.5,5.2c0,1-1.1,2.7-2.8,4.3c-0.5,0.5-1.4,2-1.9,3.4
			c-0.5,1.4-1.3,2.8-1.7,3.1c-0.4,0.3-0.8,1.2-1,2.1c-0.1,0.9-0.4,2.1-0.5,2.6c-0.2,0.7-0.1,0.9,0.3,0.8c0.3-0.1,1,0.3,1.5,0.8
			c1,1.1,1.3,2.2,0.6,2.2c-0.7,0-0.9,2.1-0.3,3.1c0.9,1.3,0.8,4.9-0.2,7.5c-0.5,1.2-0.8,2.6-0.8,3.3c0,1.3-2.1,4.8-2.8,4.8
			c-0.3,0-0.6,0.2-0.6,0.4c0,0.2,0.3,0.4,0.6,0.4c0.4,0,0.8,0.5,1.1,1.1c0.3,0.7,0.6,1.5,0.8,1.9c0.2,0.4,0.2,0.8,0,1
			c-0.3,0.1-0.4,1.1-0.4,2.2c0,1.7,0.3,2.2,1.3,3.2c1.4,1.4,1.7,2.1,0.6,1.7c-0.6-0.2-0.6-0.1-0.4,0.8c0.5,1.5,0.8,1.7,1.7,0.9
			c0.6-0.5,0.7-0.7,0.3-0.8c-0.6-0.2-0.8-1.4-0.2-1.4c0.2,0,0.6,0.6,0.8,1.3c0.2,0.7,0.6,1.3,0.8,1.3c0.3,0,0.5,0.3,0.5,0.6
			c0,0.3,0.3,0.6,0.6,0.6c0.3,0,0.6,0.1,0.6,0.3c0,0.2,1,1.3,2.1,2.6c1.4,1.5,2.1,2.7,2.2,3.4c0,1.8,0.3,2.7,0.8,3
			c0.3,0.2,0.3,0.6,0.2,0.8c-0.2,0.3-0.1,0.5,0.1,0.5s0.3,0.3,0.3,0.5c-0.1,0.3,0.5,0.8,1.6,1.3c1.8,0.7,3.3,1.9,8.4,6.5
			c5.1,4.6,6.4,5,10.3,3.1c4.1-2,10.5-2.1,14-0.4c0.5,0.2,1.2,0.1,1.9-0.3c3.9-2,6.8-3.2,7.7-3.2c0.5,0,1.1-0.3,1.2-0.6
			c0.3-0.8,3.7-1.5,7.7-1.6c2.5-0.1,3.2,0,3.9,0.7c1.1,1,2.5,3.7,2.5,4.6c0,0.3,0.4,1.1,1,1.5c0.7,0.7,1.3,0.8,2.4,0.6
			c0.8-0.1,2.2-0.3,3.2-0.4c0.9-0.1,2.3-0.3,3.1-0.3c1.1-0.2,1.4,0,1.6,0.8c0.1,0.5,0.6,1.1,1.1,1.2c0.5,0.1,0.8,0.5,0.8,0.8
			c0,0.3,0.3,0.8,0.6,1.1c0.8,0.7,0.4,4.8-0.6,6.9c-0.6,1.1-0.6,1.6-0.3,1.7c0.3,0.1,0.4,0.5,0.1,1c-0.2,0.4-0.4,1.7-0.5,2.7
			c-0.2,1.8-0.8,2.7-1.5,2.3c-0.6-0.3-0.4,0.8,0.3,2.2c0.3,0.7,0.9,2,1.4,2.9c0.4,0.9,1.5,2.4,2.3,3.2c3,2.9,6.8,8.5,6.8,10.1
			c0,0.5,0.2,1,0.4,1.1c0.3,0.2,0.3,0.4,0.2,0.6c-0.1,0.2,0.2,1.4,0.8,2.6c0.6,1.2,1.4,3.3,1.8,4.5c0.8,2.2,0.8,2.3,0,2.8
			c-0.8,0.6-0.8,0.7,0.6,4.1c0.9,2.4,1.4,4.2,1.3,5.4c-0.1,2.2-0.8,4.2-1.5,4.2c-0.8,0-2.8,3.6-3.1,5.6c-0.3,2.5-1.4,6.3-1.8,6.3
			c-0.6,0-0.3,7.8,0.3,9.2c0.3,0.8,0.7,1.4,0.8,1.4c0.4,0,2.2,3.8,4.1,8.3c0.4,0.9,1.2,2.5,1.8,3.6c0.9,1.5,1.1,2.5,1.2,4.9
			c0,1.6,0.3,3.9,0.5,5.1c0.3,1.1,0.8,3.8,1.1,5.9c0.8,4.4,1.4,5.7,3.6,8.1c1,1.1,1.9,2.8,2.5,4.7c1,3.1,2.4,6.2,3,6.6
			c0.2,0.1,0.5,1.1,0.6,2.2c0.3,1.7,0.2,2-0.4,2c-0.3,0-0.7,0.3-0.8,0.5c-0.2,0.6,0.5,2,1.1,2.5c0.2,0.2,0.3,0.8,0.2,1.4
			c-0.3,1.4,0.3,2.5,0.9,1.6c0.3-0.4,0.4-0.5,0.4-0.1c0,0.3,0.3,0.6,0.6,0.6c0.3,0,0.9,0.4,1.4,0.8c0.9,1.1,1.8,1.1,2.8,0.1
			c0.5-0.5,1.4-0.7,2.5-0.7c1,0,2.2-0.2,2.8-0.6c1.2-0.8,4.3-1,6.6-0.5c1.1,0.3,1.8,0.3,2.2-0.1c0.3-0.3,1-0.4,1.6-0.3
			c0.6,0.1,0.9-0.1,0.9-0.3c0-0.3,0.7-0.6,1.7-0.7c2.2-0.3,6.5-3.1,8.9-5.8c0.5-0.6,1.6-1.7,2.5-2.5c1.6-1.5,4.5-5.7,4.5-6.4
			c0-0.6,2.8-3.4,3.4-3.4c0.5,0,1.2-1.6,2.3-4.9c0.8-2.4,0.9-5.5,0.3-5.1c-0.8,0.5-0.4-0.6,0.6-1.7c0.5-0.6,2.3-1.6,3.9-2.3
			c2.2-0.8,3.2-1.6,3.9-2.6c0.6-0.9,0.8-1.6,0.6-1.8c-0.3-0.3-0.3-0.8,0-1.5c0.6-1.4,0.5-4.7-0.1-5.3c-0.3-0.3-0.4-0.6-0.4-0.8
			c0-0.3,0.2-0.2,0.4,0.2c0.3,0.5,0.4,0.5,0.4-0.3c0-0.5-0.2-0.9-0.5-0.8c-0.3,0.1-0.5-0.5-0.6-1.4c0-0.8-0.3-1.5-0.6-1.6
			c-0.3-0.1-0.5-0.6-0.5-1.1c0-1.1,3.8-5.3,4.8-5.3c0.4,0,0.7-0.2,0.7-0.3c0-0.2,0.3-0.8,0.8-1.4c1.5-2.1,3.1-3.3,5.5-4.3
			c1.4-0.5,2.5-1.1,2.7-1.2c0.1-0.2,0.5-0.5,0.9-0.7c1.1-0.6,3.9-4.5,4.5-6.2c0.4-1.2,0.4-2,0.1-3.4c-0.3-1-0.5-4.2-0.4-7.3
			c0.1-7.1,0.2-6.8-1-7.3c-0.8-0.4-1.2-1.1-1.7-3.4c-0.9-3.7-0.9-4.2,0.1-4.5c0.5-0.1,0.8-0.5,0.8-0.7c0-0.3-0.3-0.4-0.6-0.3
			c-0.8,0.3-1.4-0.9-0.8-1.8c0.3-0.6,0.2-1.1-0.8-2.2c-0.7-0.8-1.2-1.7-1.2-2.1c0-0.9,1.4-4.8,1.8-5.1c0.4-0.3,2.4-4.8,2.7-6.2
			c0.1-0.5,0.6-1.1,1.1-1.4c1.3-0.7,3.5-3.1,4.4-4.7c1.8-3.6,7.5-9.8,11-12c2.3-1.4,9-8.8,9.1-9.9c0-0.2,0.7-1.4,1.5-2.7
			c0.8-1.3,1.5-2.6,1.5-3.1c0-0.8,2.6-6.4,3.1-6.6c0.2-0.1,0.3-0.3,0.3-0.6c0-0.2,0.5-1.4,1.1-2.5c0.6-1.1,1.1-2.8,1.1-3.6
			c0-1.1,0.2-1.5,0.8-1.7C243.8,114.4,244.1,113.9,243.4,113.6z"/>
	</g>
</g>
</svg>
