<svg xmlns="http://www.w3.org/2000/svg" xmlns:xlink="http://www.w3.org/1999/xlink" style="isolation: isolate;" width="300" height="300" viewBox="0 0 300 300">
    <defs>
        <clipPath id="_clipPath_northamerica"><rect width="300" height="300" /></clipPath>
    </defs>
    <g clip-path="url(#_clipPath_northamerica)">
        <path
            fill="none"
            fill-rule="evenodd"
            stroke="#ffffff"
            stroke-linecap="square"
            stroke-linejoin="miter"
            stroke-miterlimit="3"
            stroke-width="1"
            d="m113.8752 82.1147-2.347 1.0835-6.5377.9647-1.2783.6483-9.7741.907-1.1988.893 1.8865 1.7895-2.5087.6799.4894.7095-2.5095 1.2741 4.2335 1.7965-.6511 1.2389-3.6724-.1153-.7594.7777-3.3405-1.3535-4.14.0499L78.9948 94.56 75.8988 93.5053 70.1424 91.6941 66.06 91.763l-5.393 2.8399-.3241 1.9083-2.6888-1.5117-2.0848 2.8687.7636.533-1.5089 1.98 2.2177 1.7712 1.9406-.0717 1.6636 1.7459-.263 1.343 1.3247.4247 2.437-.5512 3.0277-1.1482 2.2212.6412 2.6135-.1301.4648 1.6165-.4683 2.5488-2.2823-.3888-2.2247.4247-.1005 1.9083-2.5418-.2482.09.8529 1.44.6588 1.1805 2.347 3.0277.8895.4971.9105-.6412 1.0912.1477.637.5567.4442.5233-.6678 2.1059-.6659.7488 1.4941 1.9012 1.5694-2.2936.8353-1.4752.2034-1.5666 1.3555 1.7353.1547-.6736 1.7895 2.0377.8817-.3776 2.7323.4859 1.8506-.2524.6082-4.0788.6912-3.7146-.45-1.8148-1.3099-2.4764-.5435-.8283-1.9266-.0682-1.2959.9577-.6082.45-.9148.4535-2.0299 2.1523-.2088-.8058-.7059-1.2171-.1223-1.3282-1.8541-1.3753-1.3746-1.5588 1.0547-.45.6623-1.1559-.1765-1.7923-1.5877-.7348-.09-1.6453-.6047-.7987-1.073-2.4377-.5435-1.5834.4106-.4577-.4866-3.5564-1.2523-3.8447-.4254-2.2106-.4458-.3171.3094.9577.7995 1.4477.3023 1.5082.9612.6518 1.7817-.3888 1.1159-3.0853 1.3648-2.2465-.2306-3.0459.3994-3.747-1.0076-4.5619-1.8436-4.32.0577-3.0452.7383-3.1395 1.6952L9.817 119.1228 8.723 121.11 4.6983 121.214 1.8 123.7128l1.6559 1.2487-1.2705 2.0306 1.9076 1.4505 1.5483 2.5995 2.8512-.0464 2.527 1.3894 1.8077-.3094.6012-1.0842 2.8146.0865L18.36 132.4824 22.3235 132.1872 24.12 130.6824l2.1853.6012 1.5947-.2194-.99.9787.9612 1.1848-.6405 1.0765.2447 1.9976-.0471.0942-1.2994 1.8394-.9323 2.1277-.0724.0288-.3741.6588-.5295 1.9723-.6912 1.2206.18.1477-.7594.8606 1.4541 3.8123.2595.6764.09.3783-.3241 1.0441-.1153.9141-.4064 1.433 1.2994-.0105 1.3324 1.7923 1.5912 2.1066 1.0223 1.9434.7594.5836.727 1.3535-.1434.5941.8599 1.4941 1.4112.54 1.2241 1.0223 1.5012 2.8941-.1118 1.5518.3023 1.8141 1.7283 2.4912 1.1665.4289 1.807 1.7965.7383 2.1312 1.3929 2.1888 1.3465.9359.2018 1.0441.7882.7847.3382 1.1159.1188 1.1377-.3164.5041.2665 1.1946-.5224.1266.7488 1.0765.5112 1.9294.4289.7741-.0759 1.4252.6806 1.5265 1.807.1329.8353-.3523 1.2923.0577.4064-.6666.6841-.1905.5723-.6912.6588-.1477 2.1923-.1329 1.6671-.5041 1.5265-1.0835.7847.1547 1.1482-.1441 2.34-1.8429 4.1759-1.2206 2.5995-1.1018.0612-.8923.5077-1.1595 1.89-.7024 1.2059-.147 1.7459-.8824 1.4442.2447 1.2635-.7235-.0148-1.0547 1.0223-.6588 1.627.0218.5977-.5512.2524-1.2741 1.6341-.9759 1.2023.0077.2454-.3206-.3206-1.7459.4177-1.3247.5435-.623 1.1876.1364.9724-1.7887 1.1018-.8353.4177-.7348.9499-1.5546.007-.5836-.9359-.3312-.7052-.8677-1.1777-1.4977-1.5476-.4753-1.9153-.3417-1.4618-.9506-1.17-1.7852-.3565-2.063-.2715-.2799-.596-.4661-.8613.0806-1.3001.3516-.843.5351-.2209 2.1765-1.793 1.7641-1.5764-.0759-2.16-.0682-2.0447.4106-.0977-.7165-.4641.1259-.4971-.997.5688-1.537-.0464-1.53-.7924-.8177-.713.2812-.7017 1.3711-.134.5199-.354.0494-.0809-.1657-.7488-.7312-.3312-.8782.2595-.8712-.1589-1.0765-1.7782-1.0976-.45-.9183-1.2853-.5977-1.0223-2.2535-.8423-1.9695.2341-.5977-.5435-1.1517 1.5476.1259.9759-1.0188 1.6629.8677 1.4041-.4247 1.9301 3.4847 1.7423 2.4771 2.5165.7453 2.6381 2.0088 3.1936.8634 2.6353-1.2635 2.0053-.4676 1.2523.4641 1.1123 3.2041 2.9489.3382 2.8477.6012 4.9177.7889 3.6788-.3677 4.2448-.0464 4.8129-.4936 2.0194 1.9912.7777 1.8788 1.9153.6588 3.0635 2.2177.7741 1.0259-1.2565.9436 3.413 3.1676 1.8394.3136 3.8018-1.5659.5077 2.4476-.007 3.1648.7812 3.3441 1.08 5.0618 2.3759 3.5895.4535 1.6305.6483 3.2688 1.3859 2.5095.9176 1.2347 1.0012 2.6353 1.2094 3.6612 2.4736 2.437 1.0477-.7488.8817-1.7782 2.3829-.7418-.7952-.8606 1.1876-1.9905 1.3542-.1259.0105-4.4388 1.1053-2.4841-.1371-2.167-.5435-3.3989.7812-1.9905 1.2206-.1406 2.3541-.9359 1.3036-.6441.0036-1.1988 2.603-1.71 1.9652-1.6488 2.9236-3.0748 3.7582-1.7599 1.3964-1.5448-.1512-1.9652 3.2224-.5442 1.7747.0366.3741-.9541 1.0118.2341.7418.2841.3776-.4753 1.113.5295.8205-1.4548-.2377-1.0758 2.4047.1041 1.0948 1.5195.4964 1.26.1512 1.3282.7453 1.3641 1.8541 2.1312 1.5265.3354-.3171.9394 2.0482 3.0129.5442 2.4448-.9 3.24 1.62.6117 1.4646.2341 2.9665-1.8647 1.7212-1.3106 1.1299 2.1635.4718 3.3012.8529 3.1289 1.0624 1.3535-.2123 2.8441.482 1.4155-.4068 2.1339.2524 1.9364-.7706 2.5059-.2841 1.6305.4929 1.4512.9234.5464.7725-.8418 1.3894 1.4759.4465 1.2923 1.0329 1.0048.5759 1.1046-.2876 1.9048.9429 1.4217.36 2.1635 1.5124 1.7501.3023 1.3317 3.0923 2.0735 2.4729 1.9336 1.8506-.173.0506-.8859-1.0266-2.307-.9211-.72-.1912-1.5483-.2552-.8965.2805-1.1918-.1512-1.7564-1.0941-1.7501-1.5448-1.5764-.6012-.2447-1.3535-1.357-1.5806-.303-1.4576-1.497-.4718-2.2612-1.0582-2.3829-.0852-1.0404-.114-1.5268-.1411-1.9445.7179-3.5848.2053-2.8765 2.3006-.0148-.3818 2.0524 2.2359-.0471 2.3435 1.1988 1.3212 2.7 1.0617 1.3612 2.1888.3811 1.9371 1.4836-.7348 1.7712.9506 1.6741 3.2576-2.4335 2.1319-2.1783 2.9911-1.6812 2.1783-1.7205.353-4.5977-1.1953-4.8347-1.5877-2.0953-2.3723-1.6165-2.4448-3.4123-1.9976-2.7541.5759-1.8148 2.1776-2.4659 3.4889-2.2352 1.2347-.4254 3.503.8353-.6195 1.0118.6877 1.897 1.447-.1547.893-2.7577 2.7647-.4029 3.6506-1.3071 1.4759-1.2994.9035.8494 1.5982-1.163 2.9454-.2988 3.6323-2.1994 3.5923-2.4117 2.4265-3.1177 2.1171-3.427 1.9076-2.8301 1.4583-.2341.6659-2.07.4001-2.127-1.5377-.8142-.6265-1.3929 1.6418-.713.0436-1.9399-1.7754-2.0053-1.5912-2.3941-1.0259-2.5706-2.8118-1.4365 1.3395-1.8288 2.5418-1.3099 1.2206-1.4112 3.7005-.7312-.4247-1.3676-1.6889-.0689-2.3182-1.0188-2.9306 1.8689-2.0658-.7636-.0865-1.1735-2.1389-.4282-1.3788-1.7677 1.3324-1.2206 2.5629-.1259 1.6095-1.6847 2.9517-1.8183 2.2753-.9211 1.3823 1.3676-2.07 1.7571.5477 1.0188-1.3901 1.2094 2.8153-.713 1.9223-1.2199 3.6541-.7601 1.2312.6989 1.5265.2841.1687.4282-.6623 1.4077.2341.4788-.6188.3059-.713 1.1524.7017.4141.6771.2412.09.4894.7664-.2159.3171-.4901 1.267.4971 1.793 2.2359-1.9406.4387 1.1524 2.7218-.4823 1.9582.2911 1.4224 2.3548-.2236 2.0876-1.0835 2.3653-.5006.983-1.4365-.0183-3.0094-.6476-1.6952-2.2535-3.0818-1.4801-1.1447-1.0399-.4247.3023-.2918.0823-1.1306 1.1341-.7017 1.7388-.4282.9865-.7706.4648-.4612 1.35-.5794-.0977-1.8752.7812-.8895 1.1341-.8859.99.1589-.3635-.457-.0183-1.3289 1.3359-.0717.3741-3.0853-.687-2.2395 2.2423-.9211 3.1718.4641 1.7571-2.5418.8958-2.8617 1.0153-.9577-.4506-1.2291-2.4941-.3516-2.2676 1.0301-3.9677-.0036-1.0582-2.4553-3.0959-1.8577-4.5471-.8318-.9647-2.5594-.9105-1.6059-.9795-1.1229-1.6165-2.6353-2.2929-.9647-3.9101-.7777-3.4629.0717-3.247.4718-2.16 1.2994 1.4365.6195.0324 1.4435-1.4548.8388-2.3576 2.7682.0246 1.1524-3.6823 1.6488-3.1359-.9865-3.1177.2194-1.3676-.8747-1.5666-.2841-3.8264 1.8429-3.4418.4317-2.4012.6483-3.2906-.4247-2.4223.0253-1.5877-1.3359-2.5559-1.2565-2.6212-.3417-3.3047.3417-2.4694.4823-3.7118-1.0976-.4971-1.9589-3.0705-.6694-2.3723-.3059-2.9271-1.08-2.707 2.707 1.0624 1.537-2.5383 1.8183-3.78-.6553-2.6065-.0935-1.7459-1.2206-2.7253-.0394-2.2718-.803-3.9741 1.2312-4.9859 2.25-2.7541.4535-1.0223.213-1.3859-1.5989-3.3666.3495-1.1123-1.1088-1.8246-.5041-1.26-1.5117-1.44-.4683-3.7554.6694-3.6-1.5047-1.3929 1.3683-5.8359-6.6347-3.3335-2.0201.9541-.817-6.5482 2.4623-2.5059.1512.2201-1.4252L122.1196 84.75 119.394 85.387 118.5692 82.68Zm125.5676 126.6012-1.0582.0112-1.3177 2.0412-2.0123 1.8176-2.2212 1.4295-1.0329.9787-1.2853 1.653-1.8724 2.0658-3.1317.5653-1.1159.4936-.5259 2.2099-2.0194.4901-1.9153-.8965-1.5518 1.7353-.3023 2.4223.3635 2.2866 1.253 2.2317 1.3036.727.3994 3.503 2.153.3023 1.7135-.1441.9506 1.2677 3.1064-.9401 1.3036.8353 1.8647.1477 1.0329 1.5982 2.97-1.177.3818.9288 1.0076-3.9923.0689-2.603 2.513-1.7887-.1118-2.3653.8712-1.7824 3.0959-.3094-2.9306-2.4159.4535-1.2023-1.9223-2.4729 1.4871-2.3618 1.9223-.8887-.4641-1.2748 1.7529-.1294.1835-1.0223-2.1776-.7889-1.7212-.727-.1188-1.1377Z"
            vector-effect="non-scaling-stroke"
        />
    </g>
</svg>
