<svg xmlns="http://www.w3.org/2000/svg" xmlns:xlink="http://www.w3.org/1999/xlink" style="isolation: isolate;" width="300" height="300" viewBox="0 0 300 300">
    <defs>
        <clipPath id="_clipPath_northamerica"><rect width="300" height="300" /></clipPath>
    </defs>
    <g clip-path="url(#_clipPath_northamerica)">
        <path
            fill="none"
            fill-rule="evenodd"
            stroke="#ffffff"
            stroke-linecap="square"
            stroke-linejoin="miter"
            stroke-miterlimit="3"
            stroke-width="1"
            d="m216.189 95.9351-4.4147.7699-1.7903.7963-.5133.806-3.4383-.0316-4.2029.994-1.5302-.4184-4.914.1758-.6205.508-4.9412.2522-3.6404.9272-2.1507.0536-2.1647 1.2287 1.5205.9765-4.0544.2479-4.5-.0861-3.2537.3779.1846 1.9942 1.6655 1.5609-3.4603-1.0705-3.8839.0984-3.1324.7383-.4193.3467-.4294-.3961-.4548-.7198-.0869-1.0669-.936.0404-1.7097.0309-1.2056 2.561 2.4293 1.5302-1.4933 1.8765.45 1.0397 2.047.1573-.8728 1.2331 1.089 1.0661-1.6154.8912-.4992.9229-2.0566.4808-.7471.675-2.1375-.2742 3.6624-2.6596.806-1.2507-2.0654-1.1479.4271-2.5603-.6029-1.3096-1.1654-.5985 1.7728-1.5161-.3867-1.0397-4.9544-.4948-1.3948.3691-1.2243 1.7007-3.4559 1.6919.0589.5985.9984 1.4625-.6161.8868 2.2544.1846.0536.3955 1.9037.9905-1.2507.9809-6.7816-2.1419-2.5919-.5854-5.5266-.5625-.9721.6161 1.9582 1.0846-2.1243 1.2375-2.1331-1.125-2.7765.7743-3.5104.0492-1.3403.6434-2.3221-.1978 1.8448-1.1338-1.4089-.0949-6.5294 1.6066-3.9103.8956-.4588 1.1927-2.889.4052-1.4766-.639-.0088-1.0441 2.3669-.2294-1.0705-1.0485-5.2339-.5985 1.3772 1.1566-.9185 1.1206 1.5618 1.1153-1.089 1.2876-1.7464-.653-1.7279-.1081-4.3603 1.8316 1.2604 1.3685-1.5794.4588-4.5229-1.1654-1.1927.7066 1.1294.8051-.2426.9088-1.4625-.486-2.4073-.5713-.1222-1.9125-.1213-.8684-3.0507-1.3676 1.3764-.2391 8.3523 1.4221 3.056-.4992 2.0786-.9861-.1257-1.2419-1.4361-.8903-7.069-2.1155-5.1258-.4456-3.0735-1.1338-1.9301.6521-2.0522-1.1742 2.4117-.4992-5.8544-1.3729-3.3565.3735-3.4154-.0809-2.8485 1.5478-3.0779-.0984-4.1089.8191-5.139 2.3484-3.1368 1.4089-4.4947 3.6132-3.4251 2.606-3.694 1.9301-4.9412 1.5706-1.7235 1.2059.5897 4.3198.6706 2.0118 2.5875.9492 2.4926-.4359 3.6993-2.1647 1.2507 1.147 1.4265 2.6464 1.5662 2.1243.5941 1.7684 2.1691-.0853 1.0573-1.4854 2.2676.1846 1.0626-1.7552.7154-3.1412 1.9485-.4359 1.7183-2.1111-1.7903-1.0389-1.3324-1.3184 1.3641-2.6376 3.6132-1.6066 2.9742-1.5073-.2927-1.1426 1.8185-1.3096 3.2177-.5265 2.6007.8815.1934.7919-1.2463.392-4.2838 2.0294-1.6972 1.1742-.8903 1.089.9088 1.6875-.414 1.8448 1.8088.617 1.0846 1.0213 3.0463-.3955 3.2897-.6891 3.3935-.1485 1.9617.8912-2.1243 1.0354-1.9345.0536-2.0303-.3103-2.3572.2742-2.3678.5221.167 1.0714 1.183.6653.6891-.2338-.2162 1.103-.3604 1.4353-1.4977.0404-1.4897-1.3992-1.764.639-.9185 1.1742-.0624 1.408.3955 1.575-2.5831.6038-.4228.8235-1.8044-.0229-.1441-.4544-1.8677-.3155-2.3581.6302-2.9153.8684-1.2832.5493-.8815-.5985-2.1103-.7383-1.0529.5133-1.9037.3507.0176-.6653-1.8896-.4324-.0316-.7242-1.1971.283-1.4177-.247.0861 1.0617.4315.7022-1.2735.922-.3463-.414-1.5618.1037-.3691.3964-1.5521-.0545-2.5603.7831-1.6383 2.7545-.9677.5124-1.4985.3691-1.6374.3779-.5581 1.5346-4.3611 1.4581-1.764-.8007.5941 2.119-3.1456-.4816-2.4249.4052.189 1.3632 2.8617.7207 1.3772.9492 1.9301 1.9617-.3551 3.731-.9677 1.1206-3.0243-.0633-1.5521.0993-1.9934-.3199-2.511.0132-2.2904-.3375-2.6464 1.35.7655.8104-.0949 1.3324.0809.6337.3735.6706.0448.7919-.3911 1.125-.1354.7567-.7471.6794-.1485 1.2234.45.711.8376.1714.1749 1.1522-.2874 1.4625.9677-.203.9853.261.7515-.486 1.7508.2927.5265 1.0758.6926.6302.9185.1573.7154-.7066 1.1698-.6618 1.7815.036 2.3766-.0316 1.3271-1.4353 1.4133-.3735.4052-1.2146 1.0793-.8376-.7286-1.0705.7198-1.5214 1.1522-1.0389.1661-.6302 2.3985-.392 1.7736-1.2463-.0993-1.089.2118-1.125 2.7264-.6073 3.6905.5036 1.6963-1.0573.7787-.1354 1.0793-.8684.8596-.2514 1.5258.6161.9272.2162.5845 1.8492 1.2735 1.0802 1.7104 1.219 1.4625.842 1.386.1213.8104.7515 1.2015.3419.5528.806.7743.2338.5713.9448-.5297 1.0538-.0397.8631-.1622.8188.6692.3247.7778-.1441.9993-1.6066.7831-.1081.5904-.4525.7149-.358.2019-.4979.3915-.2172.4234-.1751.3507-.6706-.1934-.3463-1.6066-.9765-1.3729-.5669-1.6778-.675.5265-.3735-.4544-.414-1.4669.0088-2.0839-1.5073-.9404-1.5486-1.7552-.9404-.6117-.9536.2294-.5309-.1037-.9316 1.5214-.6618 1.4889.2698-.4184.1714-.0677.0316-.0404.6478.5537.6302.5713-.8104 1.2067.2971.0308.6302.8552.7875-.3779.1397 1.575 1.3764 1.7104.5581 1.0846.6706 1.7596.6935.8095.3735.5221.6073.3911.1485.3155.2927-.2522.5801-.1617 1.2779.1661.8912 1.0354.6302.036.4096.319.1301.1266.5353.958 1.067.7295.8596.3278 1.2463.7022 1.4941 1.5346.8147 1.2419-.0229-.7066-1.6515 1.1883-.1978-.5537-.9545 1.7332.5001-.0316-1.0582-.9229-.544-1.0441-.864.7066-.4096-.936-.878-.4184-1.1153.3507-.414.9905.9668 1.0389-.0045.9545-.3059-1.3008-1.0485 2.2685-.486.9765.1758 1.1382.0536.4456-.2109.5801-1.1698-.9132-.4957 1.9081-.5889 1.611.2514-.6029-1.0705.6838-1.3368.9677-.7743.5265-2.2588.5669.1758.9088-.4052-.0448-.4816 1.4493-1.3816.6926-1.0301 1.7376-.2294.1257.697 2.9118.4729.2558.2021.2839.225-1.7912.6214-.3287.3604 2.0435.5484-.414.878 1.0441.3823 2.5374-1.0846 2.0479-.3243.3647-.6653-.3036-.6568-.4525-.2794-.3649-.4255-.0281-.4278-.1693-.4112 1.7499-.0993 1.2463-.6073 1.4941-.1485 1.6787-.3015.0492.4096-1.0216.9625-.6879.5405-1.553 1.5662-.0004.6707.2527.7285 2.1375.7066 2.3854 1.5794.225-.2206 1.5838.3199 2.7536.3015 2.5471.9.3287.3463 1.1338-.2927 1.7464.392.5757.7646 1.1751.4368.5265.0624 1.2867 1.1347.8279.1301.319-.4772 1.1162-.7559-2.0426-2.2052.1846-1.2595-1.7016-1.7736 1.8589-1.9345 1.8176-.3059.8508-1.1118-.9492-.3015.189-.9633-1.1927-1.2507-1.3904.0536-1.5882-1.2683 1.0793-1.4177-.544-.3823 1.4941-2.0566 1.9213 1.0846.2338-1.3685 3.8654-2.0338 2.9206-.0492 4.1265 1.2955 2.214.7559 1.9846-.7875 2.9698-.036 2.3897.9677.5449-.5537 2.6279.0817.472-.8868-3.0331-1.2867 1.7956-.9141-.3507-.508 1.7956-.486-1.35-1.2823.8596-.639 7.0014-.653.9141-.4588 4.6802-.6935 1.6822-.7734 3.3618.3999.5897 1.9397 1.9573-.4544 2.4029.639-.1573 1.0213 1.7956-.1081 4.689-1.764-.6838.5854 2.3889 1.4449 4.181 4.7514.994-.9765 2.5787 1.0758 2.6912-.4816 1.0301.3375.9044 1.0846 1.3052.3604.7963.7963 2.4126-.2522.994 1.1435.7295-.1538 1.9749-.3234 3.5692-1.611 2.8477-.8824 1.6251.5766 1.9529.0264 1.2507.8736 1.8677.0677 2.7044.472 1.8229-1.3052-.7611-1.0978 1.9354-1.9397 2.0971.7743 1.7007.2162 2.2008.4816.356 1.4036 2.6587.7875 1.7692-.3463 2.3669-.2479 1.8721.2479 1.836.9 1.1338.9536 1.7367-.0176 2.3581.3059 1.7191-.4632 2.4618-.3111 2.7404-1.3184 1.125.2021.9765.6258 2.2359-.1573 2.2456.7066 2.6367-1.1795-.0176-.8235 1.6875-1.9846 1.0441-.6029-.0272-1.0301-1.0257-.4456 1.5478-.9316 2.3221-.3375 2.4838-.0492 2.7993.5581 1.6427.6882 1.1558 1.8853.7022.806.653 1.147.6926 1.836 3.2581.5985 2.214 1.328.7603 1.7596H268.875l1.6242-.7383 3.092-.5493-.9809 1.6831-.7295.6847-.639 2.0514-1.2595 1.8185-2.2729-.3287-1.6066.6618.4948 1.6014-.2698 2.2096-.9536.0501.0088.9492.261.3287.2927-.6214 2.511-1.3676 1.1786.9088 1.1786-.0272 2.4935-1.0978 1.2103-1.103 2.5198-2.1595 2.5383-2.1823.6258-1.292 2.8213-2.7088.8464-2.9927.1573-2.2315 1.4625-1.8721-.0633-1.5935-2.7044-2.0566-2.0522-.1213-1.1971.936-1.8176-.4184-.9185-1.1698-2.947-.2391 7.1684-4.4095 6.0618-3.6545 6.1559-.5528 5.7235.319 2.3177-.9176 2.9074.283-.1354 1.3544 2.8934-.1934 4.1766-.4904-1.5442-1.1479 4.6846-3.1359 4.8287-.6346 1.5346 2.2992 4.7435-2.0514 1.125-1.5442 2.272-.1573-1.5029 2.6367-3.3618 1.4941-3.2212 1.9266-3.3442 2.3528-2.9065.4192-.0993.8728-1.5794 1.1206-.9 2.5919 1.0441 4.1581.8051 2.7316.6891 1.2911 2.7-1.7464.5581-1.8984 2.7896-.4588.6521-2.1375 3.2722-.9545-.7787-.8051.8007-1.5662 1.7376-.0677.2514-2.7272-2.1331-.4184-.0668-.7559 2.2456-1.8088 1.4243-.3091 1.68-.6674 1.8044-.8016.8508.6979 4.8735-1.4713 2.6771 1.2955.6891-.8499 2.7176-1.1479 2.8626-1.3184 1.6646-.2162 5.2286-1.408 3.4875.4043.4816-.4948-.2153-.7734-.864-.5045-1.1162-1.539-1.6831-.9993 2.4205.1397 2.4082-.8235.0132-.0088v-7.4566l-2.6191-.8147-5.3815-.8947-3.8927.1125-5.9713-.5221-.8332.8323 1.5126 1.1927-2.3177.5985-3.2581-1.6611-3.5508.2074-3.5323-.3691-3.3161.0492-2.5066.3823-2.3045-.5309.2303-1.3676-1.5618-.7743-3.7213-.3103-7.5604.3551-4.8955-1.4309-1.5935-1.1109-16.9022-1.2155-2.4706.8104 1.35 1.7411-3.0595-.2654-1.3772.5265-3.622-.5757-3.1913.5036-3.0015-.8411-1.8044 1.9617-2.9426-.7603-2.3493-1.4713 1.1074-.7831-.864-1.1971-3.0199-.9853-2.9883.0088-3.9735-.3287-.1028 1.4309-7.8258-.2786-.4544-.878-6.003-.3059-2.9927.2927-.8235.486-.9536-1.2015-1.6875.3551-2.7677-.472-2.3177-.261 1.4036-.5537 4.9192-1.0397 2.0698-.5528.4632-.9721-1.4985-.7022-4.2205-.9132-5.4677-.0273-1.7104.4588-.508-.9272-4.239-.2874 2.5515-.4597Z"
            vector-effect="non-scaling-stroke"
        />
    </g>
</svg>
