<svg xmlns:inkscape="http://www.inkscape.org/namespaces/inkscape" xmlns:sodipodi="http://sodipodi.sourceforge.net/DTD/sodipodi-0.dtd" xmlns="http://www.w3.org/2000/svg" xmlns:svg="http://www.w3.org/2000/svg" width="300" height="300" viewBox="0 0 300 300" version="1.1" id="svg1" sodipodi:docname="north_america.svg" inkscape:export-filename="north_america.svg" inkscape:export-xdpi="96" inkscape:export-ydpi="96">
  <defs id="defs1"/>
  <sodipodi:namedview id="namedview1" pagecolor="#ffffff" bordercolor="#000000" borderopacity="0.25" inkscape:showpageshadow="2" inkscape:pageopacity="0.0" inkscape:pagecheckerboard="0" inkscape:deskcolor="#d1d1d1">
    <inkscape:page x="0" y="0" width="300" height="300" id="page2" margin="0" bleed="0"/>
  </sodipodi:namedview>
  <path fill="none" stroke="#ffffff" stroke-width="1" stroke-linecap="round" stroke-linejoin="round" d="m 305.595,47.88 -8.055,0.225 -2.925,0.855 -8.01,-0.09 -7.65,1.35 -0.315,0.99 0.12154,-0.005 0.59846,0.454959 -3.195,-0.18 -5.445,-0.855 -6.03,1.26 -2.475,-0.72 -7.02,0.045 -7.02,0.36 -5.4,0.585 0.945,1.035 -3.33,0.225 c 0,0 -8.84988,2.633573 -8.65941,3.540437 l 0.23834,-0.0061 -4.53893,1.640702 -2.64902,3.442898 0.17422,0.873119 1.7998,1.48898 2.655,0.72 5.58,-0.18 6.075,-0.09 4.86,0.18 6.12,1.35 -0.045,0.945 2.925,0.9 2.745,2.43 1.8,1.575 1.395,0.855 1.62,2.385 2.025,0.765 3.4311,3.565355 c 0.0314,0.257162 0.16044,1.802194 0.16044,1.802194 l -1.81257,0.688525 -1.29659,2.141914 -0.7033,0.784305 -0.27408,1.007707 -0.81,1.665 3.15,2.115 0.315,2.07 1.17,1.485 3.96,2.835 1.53,2.25 2.205,1.26 h 4.545 l 3.375,1.845005 3.195,-0.135 1.17,-2.205005 1.035,-1.89 -0.9,-1.8 3.735,-1.845 1.17,-1.485 0.045,-1.62 1.935,-1.395 3.285,-0.54 3.015,-0.54 1.575,-0.09 4.905,-1.62 3.15,-2.385 2.34,-0.9 h 2.52 l 6.66,-0.81 6.21,-1.8 4.86135,3.096547 3.60475,-0.05109 2.28925,-0.436361 8.64238,-1.162324 1.14493,-2.951296 -5.74577,-1.553107 -1.39162,0.141766 -1.36218,-0.240225 -1.06478,-1.047856 -0.57857,-0.975451 -0.66857,-0.962595 -0.50819,-0.668909 -0.157,-0.145829 -0.84214,-0.741315 -1.15985,-0.942631 1.43289,-0.377594 1.26812,-0.61173 0.765,-0.81 1.28876,-0.651315 1.14124,-0.47368 -0.57857,-1.140901 0.41616,-0.980189 0.92843,-0.466578 0.43004,-0.669585 0.63033,-1.097595 1.87681,-1.096918 0.066,-0.939586 0.62323,-1.093532 0.58635,-1.56891 1.48027,-0.616127 4.34267,-0.425639 2.29737,-1.705603 1.89237,-1.337144 1.34356,-2.836693 2.51594,-0.06699 0.54407,-0.743684 -0.66518,-1.197747 -0.18303,-1.284701 -0.50076,-1.13718 0.20775,-2.488198 -2.43812,-0.583648 -3.27688,0.116054 -3.43995,-0.694964 -5.15268,0.09846 -3.19637,0.236504 -3.73061,0.16173 -5.00313,0.526467 L 323.775,48.15 Z m -137.07,26.73 -2.7,1.665 -0.18,2.52 c 0,0 -0.30389,3.954985 -2.79,3.42 l -2.025,0.405 0.27,1.44 -3.33,-0.045 -3.555,0.36 -4.05,-1.035 -2.565,0.18 -2.295,-1.26 -1.845,-0.54 -1.845,0.225 -2.79,0.09 -1.485,0.765 -0.135,2.16 -2.43,-1.35 -1.935,0.405 -6.165,0.27 -4.14,-0.495 3.195,-1.125 -3.06,-1.17 -2.25,0.135 -3.15,-0.405 -5.355,-0.855 -3.51,-0.945 -2.745,-0.135 -0.855,0.675 -2.79,0.36 -0.315,-1.71 -3.06,1.53 -3.87,-2.025 -1.575,-0.225 -0.495,1.08 -1.71,0.54 -1.575,-0.945 -3.735,0.585 -3.42,0.99 -3.375,-0.27 -2.745,0.72 -1.98,0.945 -2.385,-0.225 -3.6,-1.08 -4.275,-0.54 -2.475,-0.315 -3.465,-0.675 -3.06,0.36 -1.755,-0.315 -4.365,-0.225 -4.815,-0.72 -2.34,0.225 -3.51,-0.405 0.135,-0.54 -3.6,-0.135 -1.035,0.45 -1.665,-1.035 -3.465,-0.495 -3.51,1.215 -2.115,-0.135 -4.32,1.035 -2.205,0.27 -2.34,1.08 -0.54,1.125 -2.88,1.035 -4.05,0.09 -1.26,1.215 2.1631716,2.057734 C 7.4907721,87.020484 7.2501053,86.060708 5.445,87.885 l -0.315,2.295 0.945,0.9 3.33,0.54 0.045,4.095 -1.845,1.26 -0.9,1.305 1.755,0.99 v 1.305 l 1.575,0.54 1.935,1.08 2.97,-0.45 1.485,0.81 -0.405,0.855 0.18,1.35 h 1.395 c 0,0 3.468278,0.15084 3.097911,1.02512 -4.0908,-1.37786 -6.546767,3.86079 -7.714417,7.50267 l 5.298514,2.77651 2.75935,-0.70973 0.894356,-1.49626 3.562177,-1.69779 1.087136,-0.66184 1.540394,-0.87946 0.364579,-1.89924 0.585,-1.035 2.295,-0.675 2.43,-0.945 2.16,-1.62 3.555,-0.63 2.52,-0.495 2.025,-0.765 2.655,-0.495 1.26,-0.135 -0.45,-1.575 2.52,-0.495 2.7,0.99 4.5,1.035 3.15,-0.18 4.005,0.81 2.16,0.45 4.725,2.385 2.655,0.675 3.645,0.045 2.205,0.135 1.215,2.16 2.925,1.845 0.63,1.98 2.025,0.72 1.26,0.855 0.045,1.17 2.745,1.665 0.405,1.845 2.925,0.99 -0.315,1.395 1.26,2.025 4.14,0.945 1.62,0.99 4.41,2.25 h 0.315 l 0.765,1.89 0.36,1.89 -3.825,6.21 -0.27,2.07 -0.9,2.16 0.72,1.755 0.09,1.935 -0.495,1.89 1.215,1.26 0.315,1.845 1.755,1.935 0.99,0.765 -0.09,0.54 1.89,3.15 2.205,2.295 0.27,1.26 0.585,0.36 2.115,0.225 0.81,0.63 1.26,0.135 0.27,0.675 1.08,0.27 1.485,1.305 0.36,1.17 0.945,2.07 1.035,1.845 0.855,1.485 1.89083,-0.45903 c -3.2115,3.41528 0.91724,1.76153 0.67417,-1.29597 l -0.36,-1.08 0.36,-0.945 1.305,0.63 0.765,-0.09 1.665,0.9 -0.045,0.9 0.81,1.755 1.215,1.71 0.09,0.72 1.08,1.125 1.305,1.215 1.215,0.18 0.585,1.575 1.35,1.125 1.17,0.54 -0.36,1.395 0.405,0.54 1.935,0.945 1.125,1.44 2.295,1.8 2.025,2.25 0.765,1.17 0.50043,0.81525 0.48957,1.11975 v 0.81 l -0.54,0.585 -0.28348,0.33338 -0.25652,0.52162 0.54,1.125 1.125,1.44 2.43,1.305 0.945,1.035 2.34,0.72 1.26,0.135 0.585,0.585 1.89,1.08 2.565,1.08 1.71,0.315 2.115,1.035 1.71,0.45 1.62,0.585 1.17,-0.225 1.845,-0.855 1.26,-0.18 1.845,0.585 1.17,0.72 2.565,2.475 1.215,0.945 1.035,0.45 1.44,0.045 1.17,0.405 0.63,0.495 1.26,0.135 1.62,-5.53503 -2.09044,4.69033 1.14544,-4.73533 0.45,-0.81 0.405,-0.09 0.45,-0.63 0.27,-1.17 -0.135,-0.225 0.225,-0.81 -0.18,-0.36 0.36,-0.99 0.045,-0.63 h -0.45 v -0.315 l 0.495,-0.045 0.585,0.585 0.585,-1.755 0.36,-0.99 -0.405,-0.405 0.54,-1.395 1.215,-1.35 0.09,-1.08 -0.54,-0.495 -1.395,0.18 -2.025,-0.09 -2.43,0.54 -1.53,0.585 -0.405,0.675 -0.18,1.935 -0.54,1.305 -1.44,0.945 -1.44,0.405 -1.71,0.405 -1.755,0.225 -1.98,0.63 -0.945,-0.945 -2.43,-0.585 -0.9,-1.125 -0.54,-1.305 -1.53,-1.71 -0.45,-1.755 -0.72,-1.125 -0.405,-1.26 0.225,-1.125 0.18,-3.06 0.405,-1.665 0.9,-1.98 -0.45,-0.765 -0.135,-1.08 0.045,-1.575 0.54,-1.035 1.26,-1.08 2.25,-0.99 2.07,-1.71 1.935,-0.54 1.44,-0.135 1.665,0.54 1.98,-0.27 1.71,1.215 1.665,0.09 0.855,-0.45 0.855,-1.305 2.295,-1.08 2.025,0.27 2.565,-0.27 1.44,0.585 1.125,1.08 0.405,0.135 2.295,-1.035 6.01732,-1.45374 0.0127,0.0587 0.36,-1.62 1.08,-1.35 1.26,-1.08 2.52,-1.485 0.315,-0.765 1.17,-0.855 1.125,-0.135 1.485,-1.35 2.34,-0.675 1.44,-1.71 -0.315,-2.295 -0.225,-0.81 4.23,-6.75 0.495,-1.62 0.54857,-0.4686 c 0,0 0.33769,0.5665 1.88143,-1.3314 l 1.305,-0.135 0.99,-0.135 1.71,-0.405 c 0.91089,0.14887 0.63,-1.89 0.63,-1.89 v -1.215 l 0.405,-0.495 1.215,-1.35 2.385,-0.675 2.34,-0.81 2.43,-1.08 1.60542,0.13711 -0.10901,0.50324 -0.14387,-0.1931 0.0866,0.5755 0.45084,1.67725 1.71,0.18 2.565,-1.665 2.25,-0.945 5.04,-1.35 2.835,-1.485 -1.485,-0.81 -0.18,-1.665 -3.30021,-0.14134 -2.46549,0.88204 c -1.02131,-0.78615 -1.56761,-0.11422 -2.24831,-0.48063 L 237.6,131.445 l -0.72,-2.475 -0.33931,-1.0288 -0.72244,-1.61497 -0.29011,-1.62684 0.65011,-0.89316 0.16175,0.0788 h 3.42 l 4.86,0.495 3.87,-0.36 2.88,-1.89 3.78,-0.81 1.62,-0.81 1.665,-0.855 -0.18,-2.565 -0.9,-0.855 -1.8,-0.315 -0.9,-1.935 -1.485,-0.72 -3.645,-0.585 -2.07,-1.305 -3.015,-1.305 0.9,-1.44 -2.52,-2.745 -2.97,-2.925 -1.8,-2.025 -1.485,1.08 -2.16,2.52 -3.285,1.26 -1.665,-1.35 -2.07,-0.36 -0.765,-2.88 0.09,-1.935 -4.05,-0.18 -0.675,-0.9 -2.79,-1.305 -2.115,-0.765 -1.89,0.585 -2.34,-0.225 -3.915,-0.63 -1.575,0.54 0.765,3.555 0.99,2.07 -2.7,2.385 2.79,1.71 1.53,1.935 0.18,1.53 -1.26,1.575 -2.565,1.62 -3.645,1.08 1.62,1.215 1.215,3.6 -1.26,2.34 -1.755,0.765 -3.375,-2.16 -1.665,-2.565 -0.72,-2.295 0.36,-1.98 -2.475,-0.225 -3.78,-0.135 -2.43,-0.945 -2.88,-0.63 -1.62,-1.08 -2.295,-0.855 -4.23,-0.99 -3.195,0.45 -1.08,-1.71 -1.035,-2.115 -3.33,-0.36 0.135,-2.655 0.9,-1.8 2.475,-2.565 2.79,-1.845 2.655,-0.27 0.135,-1.485 1.8,-0.945 3.285,-0.135 2.655,-1.53 1.3634,-0.05574 2.205,-1.935 2.15016,-0.03905 0.17644,-1.390212 3.15,-0.36 4.455,-1.575 0.27,-1.125 0.44521,-1.165828 -0.35521,-1.26417 -0.135,-1.125 -3.06,-1.125 -3.375,-0.315 -3.24,-0.18 -0.135,2.52 c -4.15056,0.766783 -9.40565,-0.26982 -12.86138,-2.807606 L 176.67,78.615 173.565,76.05 171.27,75.06 Z" id="path1" sodipodi:nodetypes="cccccccccccccccccccccccccccccccccccccccccccccccccccccccccccccccccccccccccccccccccccccccccccccccccccccccccccccccccccccccccccccccccccccccccccccccccccccccccccccccccccccccccccccccccccccccccccccccccccccccccccccccccccccccccccccccccccccccccccccccccccccccccccccccccccccccccccccccccccccccccccccccccccccccccccccccccccccccccccccccccccccccccccccccccccccccccccccccccccccccccccccccccccccccccccccccccccccccccccccccccccccccccccccccccccccccccccccccccccccccccccccccccccccccccccccccccccccccccccccccccccccccccccccccccccccccccccccccccccccccccccccccccccccc" style="fill:#000000"/>
</svg>