<svg xmlns="http://www.w3.org/2000/svg" xmlns:xlink="http://www.w3.org/1999/xlink" style="isolation: isolate;" width="300" height="300" viewBox="0 0 300 300">
    <defs>
        <clipPath id="_clipPath_oceania"><rect width="300" height="300" /></clipPath>
    </defs>
    <g clip-path="url(#_clipPath_oceania)">
        <path
            fill="none"
            fill-rule="evenodd"
            stroke="#ffffff"
            stroke-linecap="square"
            stroke-linejoin="miter"
            stroke-miterlimit="3"
            stroke-width="1"
            d="m178.6948 26.5254.0659 16.0884.0922 16.0884 5.1065.2023 2.7685.835 3.8716-1.7139-.6328-3.6211 3.0146-1.6436 4.188-1.3931 6.4556 2.1357 2.5664 4.3462 2.7905 2.6982 3.8452 3.1509 4.9746.7427 4.2495.5625 1.2173 1.2832 3.2607-.3604.5625-1.4194-5.2647-2.0698 1.4854-.9448-3.8013-.8306.2021-2.1841-2.8345.1582-3.2168-5.2427-4.4121-3.2432-1.0811-3.2827 4.5439-.5186-1.1909-2.6323-8.2354-3.0366-.7427-2.9268-2.7686-2.4741-3.397-2.54-9.1319-2.8125zm7.4707 39.8276-1.8237 1.8457-.1364 1.415-.9448 2.7246-1.1909 2.6104.7866 1.6391-.9448 1.0151-.6504 3.7134.5625 2.8345-.3604 1.437.6987 2.3862-1.5117 3.9155-.6064 2.7246-1.0107 2.1797-.9668 2.6543-3.2651 1.6875-4.7021-1.6875-.7427-1.5293-2.5884-1.2568H165.375l-3.5771-2.9268-2.5444-1.6875-3.8013-1.5732-3.9155-2.7466-.3604-1.3975 1.7578-2.4302 1.437-2.4521-.5625-1.9775 1.6875-.1582 1.8896-2.0039 1.3052-2.6323-2.25-2.4521-1.1689.9448-1.8457-.4263-2.8784 1.4194-3.085-1.5117-1.3931.4966-4.1616-1.2612-2.6323-2.0215-3.2651-1.2393-2.6323.7207 3.6255 1.6172.088 2.5225-4.1397.9448-2.54-.5845-2.9927 1.7314-2.1401 2.8125.7646 1.2393-2.228 1.3052-2.3599 3.9595 1.0547 2.6982-3.1465-.4482-3.085-.0439-2.7422-2.9268-3.6475-2.272-2.3862.6724-2.1797.6987-.0922 1.2612-2.1577-.5845-.0702 1.3711-2.4961.8569-1.1909 1.9336-2.7026 2.4302-.5845 3.7573-2.1797-1.0591-1.5557 2.3862 1.7578 2.3379-2.0962.9932-2.0918-4.2759-3.4409 4.2056-.1364 2.6806-.2241 1.9556-2.8784 2.5225-1.2612 2.6323-2.6982 2.2017-5.1768 1.4414-2.7466-.1143-1.3052.4526-.7427 1.0811-2.9927.5361-3.8892 1.8457-1.3755-.6065-2.228.3823-3.7793 1.8237-2.4082 2.0918-4.0034 1.6436-2.0918 3.397-.3604-3.7573-2.0479 3.5552.5186 2.9004-.6768 2.4522-1.0107 1.2173-.5186 2.8564 1.125 1.4854.4746 1.5513 2.4521 3.8936.088 2.5181-1.4634-1.9116-2.4522-1.415 1.6655 4.5659-2.1577-2.1357.6724 2.1138 2.8125 3.9155.6328 3.8452 2.1797 1.9819.1361 1.4414 1.9556 3.2168-.2241 2.8125.813 2.8125 2.6059 4.9922.5625 2.9268-.6064 3.4409.1802 1.7798-.8306 1.125-2.4522.6724-.1143 2.8125 2.6543.9448 5.2427 3.1509h3.3091l3.5991.2021 2.3643-1.5732 2.4741-1.3931 1.437.2241 2.9487-2.6323 3.397-.2285 3.5332-.5361 4.3638.8965L88.875 181.125l4.1836-.1143 1.8237-1.9995.9668-2.5884 4.2759-1.147 5.2427-2.5225 4.7021.3164 5.625-1.6436 6.3897-1.7754 8.8418-.4526 4.7505 2.4082 3.4629.1364 6.3457 2.9927-.9448 1.125 2.6104 1.8677 3.0806 3.5772-.1319 2.6103 3.8452 2.0479 1.8897-3.9375 3.085-1.6875 4.0254-4.21.3823 3.6475-1.9116 2.4302-.7427 2.8345-2.5884 2.7466 4.4121-.9009 2.4038-3.4234 1.1953 3.6694-1.6216 2.3862 4.7505.5845 2.4258 2.0039 1.1514 2.4961.9229 3.7573 3.1684 3.0366 4.7944 1.4414 2.8125.3384 2.8125.7866 4.2539 1.3491 4.3418-3.5771 2.6982-.9448-.7866 2.5884 3.0366.8525 4.0957 2.1841 2.9707-2.1138 2.272-1.916 4.5659-2.0215 5.5151-.1802 2.8345-1.7095-.2461-1.5776.6284-3.397 1.2612-3.6914 1.8897-2.4522 1.4634-4.2759 1.6611-2.4302 1.8018-3.8232 3.6431-2.4302 2.1841-4.5.9888-3.5332-.1098-2.8345 1.3271-4.3857.8525-2.2939.2944-4.3682-2.3643-4.2056.3604-3.063-.1319-2.8125-1.3975-3.9595-3.8452-4.0034-2.2983-1.8677-3.5069-3.0366-.8569-5.2427-1.1909.7647-2.0039-2.1357-1.9775 1.0767-1.916-5.3306-2.8345-3.1069.6548-1.1909-3.3091-2.1621-3.4893-2.3379-5.3525-2.5884-1.5996-3.3311.4746-2.562-1.3271-4.2319-1.2612-.6064-.7427-2.4522-1.0591-4.2319.5186-2.2016-2.3818-1.916-1.6216-2.0918-3.1728 1.8677-1.7798-3.8936.1802-1.7754-.3823-2.7905-1.7974-2.5181-.2021-2.0698-1.2393-.6109-.3384-3.0806zm150.5479 117.4263-1.8237.3823 2.0698 3.5112 3.8716 4.3638 2.3599 2.0259-.1319.8789 1.9995 3.3047.2285 3.1948-.835 3.8056-3.5552 1.7314-.1364 1.7754 5.313 1.9819 1.6172 2.7202-2.8564 4.0518 2.0698.7207.835 1.2832 3.8232-1.96 2.4521-3.375 1.8677-2.6763.7207-.9009-.4746-2.1357 1.3271-1.5073 3.7837.1098 1.4854-2.8784 1.2129-4.3857-2.5181-.5625-2.8125 1.8677-3.3311-.3823-3.9814-1.6216-.7427-3.7353-2.228-1.3272-.0922 3.353-3.5771-5.1987-1.3931-4.3857-3.8496-1.2832zm-1.0151 29.8345-3.4629 2.2984-.7427 2.7422-1.8677 1.2612-2.2061 3.665-2.9443 2.5664-4.2319 2.5884-3.5552 1.8896-3.1948.9229-6.2095 4.8603-2.6323 3.665.8086 1.8237 5.3789.3384 3.1948 1.6435 4.5439.088 2.4741-1.3931 3.8716-2.2061 2.8125-4.9966 1.3052-3.2388 4.2275-1.8677 3.8057-.0659-1.8018-2.3643 2.5225-1.9775 3.2168-3.6475 1.8457-2.294v-2.0698l-1.4414-2.0918-3.5112 1.9995-1.125-2.0215zm-138.5288 1.0371-.1143 2.272 2.8345 4.2978.6768 3.2607 3.0586 4.2319 3.0146.1582 1.0371.2461 3.4189-3.4189 1.7314 1.3491.5186-3.9815 1.6875-1.7095-.3603-5.8535-2.9487-.334-3.8672.9448-2.6807.6944-4.7681-1.7095z"
            vector-effect="non-scaling-stroke"
        />
    </g>
</svg>
