<svg xmlns="http://www.w3.org/2000/svg" xmlns:xlink="http://www.w3.org/1999/xlink" style="isolation: isolate;" width="300" height="300" viewBox="0 0 300 300">
    <defs>
        <clipPath id="_clipPath_northamerica"><rect width="300" height="300" /></clipPath>
    </defs>
    <g clip-path="url(#_clipPath_northamerica)">
        <path
            fill="none"
            fill-rule="evenodd"
            stroke="#ffffff"
            stroke-linecap="square"
            stroke-linejoin="miter"
            stroke-miterlimit="3"
            stroke-width="1"
            d="m60.6797 22.5-2.0996 2.0898-1.6904.9697-3.4092 2.1855-3.3906-.3604-.3447.9053-2.7353.0801-2.4844 2.0146-.8008 3.6602-.0401 1.4355-1.7842.46-3.2559 3.0244-2.2393-.1348-.5254.6348 1.0049 2.5498-.8145 1.29-1.4004-.3096-.5547 2.1045 1.7549 2.3105.6846 3.665-.9297 1.1396.9805 3.9648-.8203 2.5156 1.5996 1.0352-1.6602 2.2744-1.8242 2.7197-2.1504.2949-1.0147 1.5703.1895 2.1699-1.6152.3252.585 1.3447-2.9795 1.7256-2.375.9297.3047 1.7705-1.6445 2.7891-.7949 2.7002-1.5205.6553.7353 3.9346-.8799 1.2256 2.5947 1.8945 1.6553-2.0098.9395 1.8955-2.3096 3.2344-3.4551 2.7402-1.3496 3.0352 2.0996 4.1348-1.4004 1.9346 3.0908 1.7559 3.3643 2.8301 1.3652 3.1943 1.7754 1.9756 4.0947 8.6299 4.2754 8 3.6699 5.6894-.71 1.2451 1.7949 3.585 3.3398 2.6699 7.7744 4.7402 8.5957 4.3555.375 1.7793 4.3496 2.4854.9004 6.1104.3193 7.0947-1.3545 9.6895-1.3955 9.0059-.7793 8.3848-2.5352 5.2949.5195 5.3496-1.2949 3.5752 1 6.4951-1.835 6.46-3 6.9346-2.6602 7-1.8242.1455.3545 4.8799 1.25 4.2305-1.9902 2.9648-1.4795 8.0293-1.3603 6.2002 2.7353.6103 1.3545-5.4102 2.9053 1.1553-2.2647 8.9795-4.8154-1.5244-1.4746 7.1992-4.1299 3.8301 6.5791 1.2656-4.5791 3.3496-1.8408 4.1699.5557 7.3848 2.1797 2.8857-1.2295 2.54 1.3594 2.7451 5.3906 2.4795 4.9648 3.0205 4.8896 1.4092 1.835-.0996.7002-4.0498 3.9102-1.5654 2.0898-1.0645 3.8545.0293 1.8301.2207-2.8848-2.5107-1.4004-4.5 1.7754-2.0293 3.9551-1.7148 2.8203-5.0801 5.1201-2.4453 1.4893-3.8897-4.1445-.875-4.2598-3.1758 1.2393-3.25 3.4004-2.2197 4.0947-.0146 1.0254-2.3203.6348-4.3604 3.4854-2.6943 3.9893-1.3457-1.2891-2.2549-2.375 1.3701-2.9258-1.3047-.6045-4.3105 1.6699-1.1348 4.1699 1.5801 4.4404-.5996 2.5996-1.5254-.7998-2.1846.8896-3.2451-.9102-2.585 4.7598.4346 8.6953-.8994 6.4297-2.3252 4.165-5.5605.2207-2.1201-2.71-1.8848.5898-2.9902-5.5-3.7148.2949-2.2598 2.6396 2.3955 2.9404-.1406 4.0049 1.8652 2.3496-.4648 3.2002.8652 4.8955-2.4102 1.875-2.7256 2.8701-2.4746 1.9746-4.125 2.9502-2.0303 3.8096-3.4346 4.8105-7.6299 3.0293-2.3906.9853-2.1143.8096-4.3809-.7197-2.3897.6299-3.2402 3.6699-4.2998 5.1006-3.4502 4.8545-1.2646 3.0557-1.9297 6.8193-1.665 4.71.0097 1.0156-2.6006 3.5049-1.875.7402-4.4795 4.3945-5.6602.7695-5.7949 1.3701-1.71.46-2.8603 1.21-6.6797-.3096-8.1201 1.21-3.1895 1.085-.085 3.21-3.7607 2.7598-4.8994L217.25 118.25l2.2051-2.835 1.7295-7.165-.7197-2.6201-1.4746-5.5195-1.5703-1.3701-3.7051-.1748-3.3398-1.25-5.5352-4.8555-6.4102-3.5898-6.4746.1699-8.4404-2.29-5.04 1.335.71-2.4004-2.1143-2.54-7.2002-2.6494-5.4551-1.5547-3.29 2.8447-.1602-4.3447-7.6602-.6855-1.3496-1.3047 3.2598-3.5703-.1152-2.9902-2.3193-.7148-2.4307-7.585-1.0742-2.3945-1.4756.2051-2.5645 3.9648-1.3301 3.1943-1.6602 1.6455-2.0801.3096-.5898-1.2197-.9697-.1797-1.3408 1.1748-1.8945-.8955 1.1045-1.8242.3857-1.9805.7549-1.8652-1.7002-2.5693-.3447-2.9648 2.2598-3.7305-4.665-1.165-3.5049.3154-.4648.7793L124 50.5254l-1.71-1.5107-2.3252-2.1143-1.6299-.1055-.125-2.2295-2.6797-2.8252-2.8457-1.5957L110.9854 39.125 108.7246 39.2197 108.0352 35.75 104.75 33.6152l-3.4697-.3252-1.4805-2.0449 3.6807-1.2803-5.1953.0605-5.3701.2598-.0498 1.0898-2.4307 1.3555-3.3145-.5352-2.4853-1.9404-4.6299.4453-3.8897-.04-.1699-1.4355-2.8203-2.415-3.04-.0693-1.5547-3.0498-1.5205 1.3691.6006 2.0459-5.4004 1.7598.2197 3.2793 1.3457 1.5303-.9756 3.1299-1.8652.2852-1.6445-3.4395 1.915-2.5205.0547-2.2646-1.415-1.9707 2.5449-.5049.1201-1.0244.8457-1.46-1.1406-1.1406zm57.2402 275.4404-2.5996 1.7344-3.6855-1.085-5.2002 2.6006 2.165 1.9541 3.6855-1.9541 1.9502 1.5195 5.8545-1.2998 1.2998-1.5205zm-46.7998 6.1494-3.9951 1.79-1.4053 2.9648-2.2393 1.9902-5.75-1.5547-6.0859-2.8955-3.5742-.9102 5.9746 4.8555 4.4248 2.3301 5.4551 2.4199 4.54.6299 3.1504 1.2998 2.5645.3506 2.1299.1396 3.7207-1.3447 1.4346-1.7549 2.21 1.5293 4.1152-.2148 1.9551-2.1699-6.0703-1.0801-5.6348-2.6045-2.1699-3.25-1.665-2.0107z"
            vector-effect="non-scaling-stroke"
        />
    </g>
</svg>
